<?xml version="1.0" encoding="UTF-8"?>
<svg version="1.1" xmlns="http://www.w3.org/2000/svg" width="500" height="500">
<path d="M0 0 C0.81603699 0.00087616 1.63207397 0.00175232 2.47283936 0.00265503 C31.03322147 0.10367516 58.38322922 7.28373793 81.85620117 24.22070312 C84.9255349 26.42062084 84.9255349 26.42062084 88.17236328 28.00610352 C92.46810156 30.47646953 96.19841809 32.62658565 97.62823486 37.52905273 C98.51071256 43.81807651 98.09221148 50.12003938 97.75 56.4375 C97.68973721 58.37157912 97.63499648 60.30583864 97.5859375 62.24023438 C97.45436709 66.95631135 97.24778147 71.66365763 97 76.375 C92.17309638 75.65299257 90.19409266 74.11665141 87 70.375 C87 69.715 87 69.055 87 68.375 C86.443125 68.1275 85.88625 67.88 85.3125 67.625 C82.57589087 66.14575182 80.32349131 64.44032561 78 62.375 C78 61.715 78 61.055 78 60.375 C77.43023437 60.11976563 76.86046875 59.86453125 76.2734375 59.6015625 C73.74469189 58.23725645 71.80662728 56.61890255 69.625 54.75 C63.51334855 49.79047136 56.92527689 46.04318319 50 42.375 C48.67742187 41.6634375 48.67742187 41.6634375 47.328125 40.9375 C36.19195994 35.40400183 22.46418437 31.64094988 10 31.375 C9.03537842 31.33850342 9.03537842 31.33850342 8.05126953 31.30126953 C-22.96440701 30.19479403 -52.89315978 38.97709563 -76 60.375 C-94.04809988 77.80762947 -108.38225365 102.85188503 -109.3359375 128.3984375 C-109.55844575 144.02021884 -109.42177531 156.55451796 -98 168.375 C-91.20420953 175.06804634 -82.73780013 177.40737744 -73.3125 177.6875 C-65.73426256 177.3592009 -59.87780375 175.76635373 -53.62890625 171.3984375 C-52 170.375 -52 170.375 -50 170.375 C-50 169.715 -50 169.055 -50 168.375 C-47.625 165.75 -47.625 165.75 -45 163.375 C-44.34 163.375 -43.68 163.375 -43 163.375 C-43 162.715 -43 162.055 -43 161.375 C-42.34 161.375 -41.68 161.375 -41 161.375 C-41 160.715 -41 160.055 -41 159.375 C-40.34 159.375 -39.68 159.375 -39 159.375 C-39 158.715 -39 158.055 -39 157.375 C-38.34 157.375 -37.68 157.375 -37 157.375 C-36.773125 156.818125 -36.54625 156.26125 -36.3125 155.6875 C-34.62449964 152.71340412 -32.53323483 150.65491135 -30 148.375 C-29.34 148.375 -28.68 148.375 -28 148.375 C-28 147.715 -28 147.055 -28 146.375 C-27.34 146.375 -26.68 146.375 -26 146.375 C-25.773125 145.818125 -25.54625 145.26125 -25.3125 144.6875 C-23.62449964 141.71340412 -21.53323483 139.65491135 -19 137.375 C-18.34 137.375 -17.68 137.375 -17 137.375 C-17 136.715 -17 136.055 -17 135.375 C-16.34 135.375 -15.68 135.375 -15 135.375 C-15 134.715 -15 134.055 -15 133.375 C-14.34 133.375 -13.68 133.375 -13 133.375 C-12.73833038 132.78866791 -12.47666077 132.20233582 -12.20706177 131.59823608 C-10.93099262 129.24789822 -9.57170984 127.69297624 -7.68701172 125.80322266 C-7.012258 125.12216461 -6.33750427 124.44110657 -5.64230347 123.7394104 C-4.54705856 122.65023819 -4.54705856 122.65023819 -3.4296875 121.5390625 C-2.67462921 120.78209076 -1.91957092 120.02511902 -1.14163208 119.24520874 C0.45813198 117.64408407 2.06042299 116.0454808 3.66503906 114.44921875 C6.10190199 112.02299715 8.52800177 109.58638685 10.953125 107.1484375 C12.51238054 105.59050474 14.072257 104.03319312 15.6328125 102.4765625 C16.35083038 101.75449615 17.06884827 101.03242981 17.80862427 100.28848267 C24.07113974 94.08288344 30.40899448 88.76995793 38.5 85.125 C39.5415625 84.64546875 40.583125 84.1659375 41.65625 83.671875 C58.62256109 77.09148332 79.27687332 77.86277767 95.93359375 84.83203125 C114.17652056 94.01159315 125.62014437 110.05963783 132.0703125 128.95703125 C140.22251016 158.92834618 133.36162716 190.66185146 118.4140625 217.3046875 C111.91091073 228.47785241 103.96374337 238.10868301 95 247.375 C94.11441406 248.31214844 93.22882813 249.24929688 92.31640625 250.21484375 C81.83380848 261.06258281 70.35095229 269.43453758 57 276.375 C56.40993164 276.68566406 55.81986328 276.99632812 55.21191406 277.31640625 C22.79650441 294.14917737 -16.49615409 295.48765019 -51.05908203 284.734375 C-70.07757965 278.46624261 -90.75478751 267.62021249 -105 253.375 C-105.08855161 250.7087397 -105.11524673 248.06852886 -105.09765625 245.40234375 C-105.0962413 244.60470108 -105.09482635 243.80705841 -105.09336853 242.98524475 C-105.08775316 240.42762565 -105.07519812 237.87009282 -105.0625 235.3125 C-105.05748698 233.58268355 -105.05292373 231.85286574 -105.04882812 230.12304688 C-105.03777875 225.87366447 -105.02050386 221.62434688 -105 217.375 C-102.63647461 216.76855469 -102.63647461 216.76855469 -100 216.375 C-97.81640625 218.078125 -97.81640625 218.078125 -95.5625 220.625 C-76.7426755 240.59305784 -51.95487192 253.78179313 -25 258.375 C-24.22140625 258.5090625 -23.4428125 258.643125 -22.640625 258.78125 C7.56726304 262.99630414 35.83884813 254.62708347 60.0390625 236.51171875 C62.34174292 234.85002193 64.41775466 233.51496684 67 232.375 C67 231.715 67 231.055 67 230.375 C67.66 230.375 68.32 230.375 69 230.375 C69 229.715 69 229.055 69 228.375 C69.66 228.375 70.32 228.375 71 228.375 C71.25652344 227.79492188 71.51304687 227.21484375 71.77734375 226.6171875 C73.11299643 224.16777972 74.62924308 222.50746274 76.5625 220.5 C93.15774877 202.1309837 103.86766309 177.11418007 103.24609375 152.21484375 C102.1499739 139.56596863 98.54244148 126.55675001 88.859375 117.7734375 C82.21595564 112.77691621 75.80886391 111.23606516 67.5625 111.1875 C66.47066406 111.17332031 65.37882813 111.15914063 64.25390625 111.14453125 C58.83314258 111.5284749 54.75848098 113.26316226 50.3125 116.3125 C49.56613281 116.81652344 48.81976563 117.32054687 48.05078125 117.83984375 C45.98286806 119.30450827 45.98286806 119.30450827 44.35546875 121.06640625 C43 122.375 43 122.375 41 122.375 C41 123.035 41 123.695 41 124.375 C40.34 124.375 39.68 124.375 39 124.375 C38.5978125 125.2721875 38.5978125 125.2721875 38.1875 126.1875 C37.00082594 128.37347854 35.90400887 129.78832594 34 131.375 C33.34 131.375 32.68 131.375 32 131.375 C32 132.035 32 132.695 32 133.375 C31.34 133.375 30.68 133.375 30 133.375 C29.68482422 134.17695801 29.68482422 134.17695801 29.36328125 134.99511719 C27.47038985 138.2995415 24.86934474 140.79094503 22.1875 143.453125 C21.61797607 144.02456238 21.04845215 144.59599976 20.46166992 145.18475342 C19.2604332 146.38734789 18.05668003 147.58743334 16.85058594 148.78515625 C14.99959045 150.62540717 13.15954554 152.47612633 11.3203125 154.328125 C10.15168276 155.49543384 8.98243316 156.66212251 7.8125 157.828125 C7.26037842 158.38429504 6.70825684 158.94046509 6.1394043 159.51348877 C2.22993635 163.375 2.22993635 163.375 0 163.375 C-0.22816406 163.92768555 -0.45632812 164.48037109 -0.69140625 165.04980469 C-2.37845518 168.04746403 -4.50812518 170.1426506 -6.9375 172.578125 C-7.41823975 173.0607782 -7.89897949 173.5434314 -8.39428711 174.04071045 C-9.40721093 175.05499064 -10.42264638 176.06676804 -11.44042969 177.07617188 C-13.00173165 178.62671972 -14.55202497 180.18770503 -16.1015625 181.75 C-17.08790061 182.73501734 -18.0748585 183.71941453 -19.0625 184.703125 C-19.96097656 185.5993457 -20.85945313 186.49556641 -21.78515625 187.41894531 C-24 189.375 -24 189.375 -26 189.375 C-26 190.035 -26 190.695 -26 191.375 C-26.66 191.375 -27.32 191.375 -28 191.375 C-28 192.035 -28 192.695 -28 193.375 C-39.93956016 203.68282027 -52.20996702 209.080735 -68 210.375 C-68.95326172 210.45427734 -68.95326172 210.45427734 -69.92578125 210.53515625 C-86.21607541 211.24076221 -101.13311113 205.19789712 -115 197.375 C-115 196.715 -115 196.055 -115 195.375 C-115.58007812 195.1171875 -116.16015625 194.859375 -116.7578125 194.59375 C-128.39864664 188.26632796 -134.18953207 174.33525876 -138 162.375 C-146.02391947 130.87861902 -140.6304087 99.08250818 -125.015625 70.73828125 C-121.3842144 64.67889264 -117.25796384 59.00585088 -113 53.375 C-112.22527344 52.35019531 -111.45054687 51.32539062 -110.65234375 50.26953125 C-106.69769436 45.18088077 -106.69769436 45.18088077 -105 43.375 C-104.34 43.375 -103.68 43.375 -103 43.375 C-102.75765625 42.80007812 -102.5153125 42.22515625 -102.265625 41.6328125 C-93.00061746 25.10449659 -64.49114911 11.3654817 -47 6.375 C-31.30370598 2.00676864 -16.26930392 -0.04271729 0 0 Z " fill="#5ED9BF" transform="translate(250,75.625)"/>
<path d="M0 0 C1.11696762 0.00222061 2.23393524 0.00444122 3.38475037 0.00672913 C4.64598221 0.00680466 5.90721405 0.00688019 7.20666504 0.00695801 C8.59341979 0.01206542 9.98017414 0.01728142 11.3669281 0.02259827 C12.77797394 0.0244625 14.18902042 0.02588638 15.60006714 0.02688599 C19.3204272 0.03071072 23.04074845 0.04054062 26.76109314 0.05158997 C30.55482966 0.06180504 34.34857243 0.06638381 38.14231873 0.07142639 C45.59090416 0.08216294 53.03945758 0.09923882 60.48802185 0.12025452 C61.32637648 2.98741677 61.56354437 5.34048933 61.3578949 8.31532288 C61.30421249 9.13395309 61.25053009 9.95258331 61.19522095 10.79602051 C61.13071243 11.67516617 61.06620392 12.55431183 60.9997406 13.46009827 C60.904851 14.83700584 60.904851 14.83700584 60.80804443 16.24172974 C60.67232263 18.187866 60.5334218 20.13378278 60.3915863 22.07948303 C60.17861937 25.01505781 59.97803767 27.95128197 59.77903748 30.88783264 C59.0924438 40.7187626 58.26258779 50.41570446 56.48802185 60.12025452 C54.20994568 60.80555725 54.20994568 60.80555725 51.48802185 61.12025452 C49.63523865 59.94862366 49.63523865 59.94862366 47.9372406 58.15541077 C47.32171326 57.52054749 46.70618591 56.8856842 46.07200623 56.23158264 C45.44616638 55.55546936 44.82032654 54.87935608 44.17552185 54.18275452 C43.53034607 53.51050842 42.88517029 52.83826233 42.22044373 52.14564514 C40.6286918 50.48314869 39.0525528 48.80832608 37.48802185 47.12025452 C33.83337199 48.6541824 31.54408185 50.84653232 28.78489685 53.66322327 C27.88642029 54.57265686 26.98794373 55.48209045 26.0622406 56.41908264 C25.12045254 57.38159983 24.1790483 58.34449271 23.23802185 59.30775452 C12.11453756 70.6424442 12.11453756 70.6424442 6.14085388 75.58460999 C-1.04387053 82.25993001 -2.48213776 91.0101128 -3.2658844 100.33509827 C-3.51197815 102.12025452 -3.51197815 102.12025452 -4.51197815 103.12025452 C-10.44482353 102.81858441 -13.91293121 101.91446824 -18.51197815 98.12025452 C-18.51197815 97.46025452 -18.51197815 96.80025452 -18.51197815 96.12025452 C-19.17197815 96.12025452 -19.83197815 96.12025452 -20.51197815 96.12025452 C-26.22120875 88.54931828 -29.3084719 80.67817952 -28.51197815 71.12025452 C-25.57709873 54.54277156 -15.54020917 45.11813082 -4.07447815 33.49525452 C-3.45903137 32.86667542 -2.84358459 32.23809631 -2.20948792 31.59046936 C-1.62997375 31.00990784 -1.05045959 30.42934631 -0.4533844 29.83119202 C0.06538269 29.30831604 0.58414978 28.78544006 1.11863708 28.24671936 C2.48802185 27.12025452 2.48802185 27.12025452 4.48802185 27.12025452 C4.48802185 26.46025452 4.48802185 25.80025452 4.48802185 25.12025452 C6.11428589 23.73793008 7.78052205 22.40087936 9.48802185 21.12025452 C9.17497365 18.19847131 8.66835294 17.26876248 6.36302185 15.37025452 C5.41427185 14.62775452 4.46552185 13.88525452 3.48802185 13.12025452 C2.18691117 11.81645003 0.91743538 10.48056548 -0.32447815 9.12025452 C-0.92904846 8.46025452 -1.53361877 7.80025452 -2.1565094 7.12025452 C-3.51197815 5.12025452 -3.51197815 5.12025452 -3.51197815 1.12025452 C-2.51197815 0.12025452 -2.51197815 0.12025452 0 0 Z " fill="#FB857A" transform="translate(184.51197814941406,138.87974548339844)"/>
<path d="M0 0 C1.32 0 2.64 0 4 0 C4 0.66 4 1.32 4 2 C4.66 2 5.32 2 6 2 C6 2.66 6 3.32 6 4 C6.66 4 7.32 4 8 4 C8 4.66 8 5.32 8 6 C8.66 6 9.32 6 10 6 C10 6.66 10 7.32 10 8 C10.66 8 11.32 8 12 8 C13.65625 9.79296875 13.65625 9.79296875 15.5 12.1875 C16.1084375 12.96480469 16.716875 13.74210938 17.34375 14.54296875 C21.93910669 21.36013704 22.52668404 29.50743782 21.75390625 37.56640625 C18.79757674 52.60967586 6.885018 62.27712817 -3.5625 72.625 C-4.47580078 73.53378906 -5.38910156 74.44257813 -6.33007812 75.37890625 C-8.55107971 77.58827955 -10.77440033 79.79526031 -13 82 C-9.33293822 86.36142567 -5.60389974 90.4524636 -1.41796875 94.32421875 C0.18604063 96.2198662 0.68546639 97.55076284 1 100 C-3.68691819 104.68691819 -22.54839726 102.12758614 -29.01486206 102.13787842 C-31.17958708 102.13710104 -33.34431213 102.13457978 -35.5090332 102.13037109 C-38.85046778 102.12493827 -42.19177225 102.13038244 -45.53320312 102.13671875 C-47.65364613 102.13605919 -49.77408906 102.13478058 -51.89453125 102.1328125 C-52.89539261 102.13483673 -53.89625397 102.13686096 -54.92744446 102.13894653 C-55.84317734 102.13579437 -56.75891022 102.13264221 -57.70239258 102.12939453 C-58.51065994 102.12859894 -59.31892731 102.12780334 -60.15168762 102.12698364 C-62 102 -62 102 -63 101 C-63.66366298 89.44334934 -62.5596506 77.92856766 -61.40087891 66.44067383 C-61.12094585 63.64704104 -60.85870466 60.85209482 -60.59765625 58.05664062 C-60.42291676 56.2707311 -60.24717404 54.48491938 -60.0703125 52.69921875 C-59.99313995 51.86807053 -59.91596741 51.0369223 -59.8364563 50.18058777 C-59.44583939 46.42267786 -59.13063903 44.19595855 -57 41 C-53.69881206 41.5805321 -52.08865924 42.54868099 -49.765625 44.94140625 C-49.19199219 45.52470703 -48.61835938 46.10800781 -48.02734375 46.70898438 C-47.44082031 47.32064453 -46.85429687 47.93230469 -46.25 48.5625 C-45.64800781 49.17802734 -45.04601562 49.79355469 -44.42578125 50.42773438 C-42.94365619 51.94514813 -41.4709033 53.47170596 -40 55 C-38.515 54.505 -38.515 54.505 -37 54 C-37 53.34 -37 52.68 -37 52 C-36.34 52 -35.68 52 -35 52 C-34.7628125 51.43796875 -34.525625 50.8759375 -34.28125 50.296875 C-32.71052303 47.48105958 -30.78528536 45.52044584 -28.5 43.25 C-27.7059375 42.45078125 -26.911875 41.6515625 -26.09375 40.828125 C-24 39 -24 39 -22 39 C-22 38.34 -22 37.68 -22 37 C-21.34 37 -20.68 37 -20 37 C-19.67 36.01 -19.34 35.02 -19 34 C-18.34 34 -17.68 34 -17 34 C-17 33.34 -17 32.68 -17 32 C-16.34 32 -15.68 32 -15 32 C-15 31.34 -15 30.68 -15 30 C-14.34 30 -13.68 30 -13 30 C-13 29.34 -13 28.68 -13 28 C-12.34 28 -11.68 28 -11 28 C-11 27.34 -11 26.68 -11 26 C-10.34 26 -9.68 26 -9 26 C-8.7525 25.484375 -8.505 24.96875 -8.25 24.4375 C-7 22 -7 22 -5 19.0625 C-2.39111524 14.62060699 -2.01516859 9.83347204 -1.39453125 4.79296875 C-1 2 -1 2 0 0 Z " fill="#FC8579" transform="translate(313,205)"/>
<path d="M0 0 C0.77327637 0.03456299 1.54655273 0.06912598 2.34326172 0.10473633 C6.44419411 0.34893511 9.93203022 0.71268797 13.625 2.6875 C14.12 3.6775 14.12 3.6775 14.625 4.6875 C13.63242187 4.543125 12.63984375 4.39875 11.6171875 4.25 C-8.15622905 1.43888301 -8.15622905 1.43888301 -27.375 5.6875 C-28.8767844 7.13049995 -28.8767844 7.13049995 -29.9375 8.8125 C-32.375 11.6875 -32.375 11.6875 -35.0390625 12.15625 C-37.00698575 12.25795146 -38.97873425 12.30506102 -40.94921875 12.2890625 C-41.74972656 12.42054688 -42.55023438 12.55203125 -43.375 12.6875 C-44.69237011 14.55651482 -44.69237011 14.55651482 -45.375 16.6875 C-47.03243028 18.72161899 -47.84712842 19.57552724 -50.4375 20.125 C-52.57743314 20.50106323 -52.57743314 20.50106323 -53.5 22.6875 C-53.933125 23.6775 -53.933125 23.6775 -54.375 24.6875 C-55.365 25.1825 -55.365 25.1825 -56.375 25.6875 C-57.09659424 27.33113134 -57.76851421 28.99800386 -58.375 30.6875 C-59.035 30.6875 -59.695 30.6875 -60.375 30.6875 C-60.6225 31.285625 -60.87 31.88375 -61.125 32.5 C-62.55572525 35.00376919 -63.9441582 36.16822388 -66.375 37.6875 C-67.035 37.6875 -67.695 37.6875 -68.375 37.6875 C-68.4575 38.47125 -68.54 39.255 -68.625 40.0625 C-69.375 42.6875 -69.375 42.6875 -71.0625 43.75 C-71.825625 44.059375 -72.58875 44.36875 -73.375 44.6875 C-78.88352514 47.62538008 -81.45313204 51.37731005 -84.76171875 56.640625 C-85.29410156 57.31609375 -85.82648438 57.9915625 -86.375 58.6875 C-87.365 58.6875 -88.355 58.6875 -89.375 58.6875 C-89.705 59.6775 -90.035 60.6675 -90.375 61.6875 C-91.365 61.6875 -92.355 61.6875 -93.375 61.6875 C-93.375 62.3475 -93.375 63.0075 -93.375 63.6875 C-94.035 63.6875 -94.695 63.6875 -95.375 63.6875 C-95.375 64.3475 -95.375 65.0075 -95.375 65.6875 C-97.25 67.8125 -97.25 67.8125 -99.375 69.6875 C-100.035 69.6875 -100.695 69.6875 -101.375 69.6875 C-102.035 71.0075 -102.695 72.3275 -103.375 73.6875 C-104.695 73.3575 -106.015 73.0275 -107.375 72.6875 C-106.08534824 71.31187146 -104.74810707 69.97983607 -103.375 68.6875 C-102.715 68.6875 -102.055 68.6875 -101.375 68.6875 C-101.375 68.0275 -101.375 67.3675 -101.375 66.6875 C-100.715 66.6875 -100.055 66.6875 -99.375 66.6875 C-99.148125 66.130625 -98.92125 65.57375 -98.6875 65 C-96.99949964 62.02590412 -94.90823483 59.96741135 -92.375 57.6875 C-91.715 57.6875 -91.055 57.6875 -90.375 57.6875 C-90.375 57.0275 -90.375 56.3675 -90.375 55.6875 C-89.715 55.6875 -89.055 55.6875 -88.375 55.6875 C-88.375 55.0275 -88.375 54.3675 -88.375 53.6875 C-87.715 53.6875 -87.055 53.6875 -86.375 53.6875 C-86.11333038 53.10116791 -85.85166077 52.51483582 -85.58206177 51.91073608 C-84.30599262 49.56039822 -82.94670984 48.00547624 -81.06201172 46.11572266 C-80.387258 45.43466461 -79.71250427 44.75360657 -79.01730347 44.0519104 C-78.2871402 43.32579559 -77.55697693 42.59968079 -76.8046875 41.8515625 C-75.67210007 40.71610489 -75.67210007 40.71610489 -74.51663208 39.55770874 C-72.91686802 37.95658407 -71.31457701 36.3579808 -69.70996094 34.76171875 C-67.27309801 32.33549715 -64.84699823 29.89888685 -62.421875 27.4609375 C-60.86261946 25.90300474 -59.302743 24.34569312 -57.7421875 22.7890625 C-57.02416962 22.06699615 -56.30615173 21.34492981 -55.56637573 20.60098267 C-39.67848951 4.85749193 -22.14265556 -1.08105375 0 0 Z " fill="#8DCFBE" transform="translate(323.375,155.3125)"/>
<path d="M0 0 C0.66 0.33 1.32 0.66 2 1 C1.67 1.99 1.34 2.98 1 4 C-1.5625 5.1875 -1.5625 5.1875 -4 6 C-3.34 6.66 -2.68 7.32 -2 8 C-2.56589844 8.12117188 -3.13179687 8.24234375 -3.71484375 8.3671875 C-4.44832031 8.53476563 -5.18179688 8.70234375 -5.9375 8.875 C-6.66839844 9.03742188 -7.39929688 9.19984375 -8.15234375 9.3671875 C-10.20700294 9.82961523 -10.20700294 9.82961523 -11 12 C-15.5 15 -15.5 15 -18 15 C-18.33 15.99 -18.66 16.98 -19 18 C-21.0625 18.6875 -21.0625 18.6875 -23 19 C-22.505 20.485 -22.505 20.485 -22 22 C-23.65 22.33 -25.3 22.66 -27 23 C-27 23.99 -27 24.98 -27 26 C-27.99 26.33 -28.98 26.66 -30 27 C-30.33 27.99 -30.66 28.98 -31 30 C-31.66 30.33 -32.32 30.66 -33 31 C-33.6496875 32.11375 -33.6496875 32.11375 -34.3125 33.25 C-36 36 -36 36 -38.5 38.375 C-41.36096615 41.37901446 -42.50646257 44.15947519 -44 48 C-44.66 48.99 -45.32 49.98 -46 51 C-46.99 51 -47.98 51 -49 51 C-48.896875 51.70125 -48.79375 52.4025 -48.6875 53.125 C-49.13197853 57.2142025 -51.27616649 59.01675377 -54 62 C-56.20174413 65.3026162 -57.05061376 68.25873889 -58.12109375 72.0390625 C-58.55615234 73.00972656 -58.55615234 73.00972656 -59 74 C-60.485 74.495 -60.485 74.495 -62 75 C-60.65691579 69.75654496 -58.82288282 65.13326417 -56.375 60.3125 C-56.02236084 59.61552002 -55.66972168 58.91854004 -55.30639648 58.20043945 C-50.24036591 48.384513 -43.99423702 39.71441709 -36.8828125 31.27734375 C-34.8902753 28.94662954 -34.8902753 28.94662954 -33 26 C-32.34 26 -31.68 26 -31 26 C-30.75765625 25.42507812 -30.5153125 24.85015625 -30.265625 24.2578125 C-24.81239873 14.52952614 -9.82517795 5.11257047 0 0 Z " fill="#80C6B5" transform="translate(178,93)"/>
<path d="M0 0 C2.31 0 4.62 0 7 0 C7.33 0.66 7.66 1.32 8 2 C8.99 2.33 9.98 2.66 11 3 C11 3.99 11 4.98 11 6 C12.216875 6.226875 13.43375 6.45375 14.6875 6.6875 C18.98911054 7.74390259 21.06862385 9.64985583 24 13 C24.99 13.66 25.98 14.32 27 15 C27.66 14.67 28.32 14.34 29 14 C29.33 14.99 29.66 15.98 30 17 C29.67 17.66 29.34 18.32 29 19 C29.66 19 30.32 19 31 19 C31 19.66 31 20.32 31 21 C31.804375 21.3403125 31.804375 21.3403125 32.625 21.6875 C36.91874624 24.06035976 40.20064687 26.97226026 43.1875 30.8125 C43.785625 31.534375 44.38375 32.25625 45 33 C45.99 33 46.98 33 48 33 C48.33 33.99 48.66 34.98 49 36 C49 24.12 49 12.24 49 0 C49.33 0 49.66 0 50 0 C50 12.54 50 25.08 50 38 C44.62977072 36.92595414 43.42838447 36.01610752 40 32 C40 31.34 40 30.68 40 30 C39.443125 29.7525 38.88625 29.505 38.3125 29.25 C35.57589087 27.77075182 33.32349131 26.06532561 31 24 C31 23.34 31 22.68 31 22 C30.43023437 21.74476563 29.86046875 21.48953125 29.2734375 21.2265625 C26.74469189 19.86225645 24.80662728 18.24390255 22.625 16.375 C17.93608537 12.5386153 13.04776749 9.56561502 7.73486328 6.70263672 C4.77201264 5.09208293 2.15517637 3.63410446 0 1 C0 0.67 0 0.34 0 0 Z " fill="#82CAB7" transform="translate(297,114)"/>
<path d="M0 0 C7.85276856 5.13134981 9.08842636 16.39183081 11 25 C11.26127686 26.15846436 11.26127686 26.15846436 11.52783203 27.34033203 C12.36380371 32.04926455 12.1904161 36.79176562 12.1875 41.5625 C12.18814453 42.63628906 12.18878906 43.71007812 12.18945312 44.81640625 C12.14103664 52.07007581 11.73646546 58.93010491 10 66 C9.01 65.34 8.02 64.68 7 64 C6.7512207 62.11499023 6.7512207 62.11499023 6.92578125 59.80859375 C6.98064697 58.95354248 7.0355127 58.09849121 7.09204102 57.2175293 C7.16479248 56.30011963 7.23754395 55.38270996 7.3125 54.4375 C7.43570003 52.53667617 7.55543897 50.63562514 7.671875 48.734375 C7.73181641 47.77724609 7.79175781 46.82011719 7.85351562 45.83398438 C8.07148915 41.61692332 8.0894072 37.40919348 8.0625 33.1875 C8.05839111 32.45909912 8.05428223 31.73069824 8.05004883 30.98022461 C8.03768564 29.32011195 8.01958111 27.66004321 8 26 C7.34 26 6.68 26 6 26 C4.77071781 21.57458412 3.89590565 17.45932774 3.5625 12.875 C3.21224285 8.65894171 2.12826578 5.70133179 0 2 C0 1.34 0 0.68 0 0 Z " fill="#79C7B5" transform="translate(373,189)"/>
<path d="M0 0 C1.72330204 0.01005787 3.44660982 0.01917872 5.16992188 0.02734375 C9.34259262 0.04911657 13.51498087 0.08348875 17.6875 0.125 C17.6875 1.115 17.6875 2.105 17.6875 3.125 C16.20709229 3.10928955 16.20709229 3.10928955 14.69677734 3.09326172 C10.96553305 3.05651848 7.23430402 3.03390621 3.50292969 3.01513672 C1.90101414 3.00520087 0.29911611 2.99164753 -1.30273438 2.97412109 C-13.89348546 2.84000908 -26.60121138 2.77464611 -38.4453125 7.63671875 C-40.72071319 8.23175031 -42.10673226 7.85535421 -44.3125 7.125 C-44.3125 8.115 -44.3125 9.105 -44.3125 10.125 C-45.28832031 10.32996094 -46.26414063 10.53492187 -47.26953125 10.74609375 C-48.54183594 11.01550781 -49.81414062 11.28492187 -51.125 11.5625 C-52.38957031 11.82933594 -53.65414062 12.09617187 -54.95703125 12.37109375 C-58.28295413 13.05927886 -58.28295413 13.05927886 -61.3125 14.125 C-61.9725 13.465 -62.6325 12.805 -63.3125 12.125 C-53.18534268 7.75984598 -43.15981826 4.25477977 -32.3125 2.125 C-30.97264038 1.85357178 -30.97264038 1.85357178 -29.60571289 1.57666016 C-19.72703553 -0.19866563 -9.99441788 -0.10248702 0 0 Z " fill="#84C9B8" transform="translate(251.3125,75.875)"/>
<path d="M0 0 C0.33 0 0.66 0 1 0 C1.33 10.23 1.66 20.46 2 31 C2.33 31 2.66 31 3 31 C3 32.65 3 34.3 3 36 C3.515625 36.2475 4.03125 36.495 4.5625 36.75 C7.12914036 38.06622582 9.62980719 39.47921473 12.125 40.92578125 C13.38630417 41.64840343 14.6575286 42.35395189 15.9375 43.04296875 C19.1649591 44.79789964 20.92510516 45.88765774 23 49 C24.64538795 49.71757975 26.31616249 50.37797633 28 51 C29.79151863 51.96245088 31.56294309 52.96322553 33.3125 54 C34.19550781 54.515625 35.07851562 55.03125 35.98828125 55.5625 C36.98408203 56.2740625 36.98408203 56.2740625 38 57 C38 57.66 38 58.32 38 59 C39.07314453 59.18369141 39.07314453 59.18369141 40.16796875 59.37109375 C43.05112713 60.01135375 45.58592473 60.93551556 48.3125 62.0625 C49.63701172 62.60583984 49.63701172 62.60583984 50.98828125 63.16015625 C51.65214844 63.43730469 52.31601563 63.71445312 53 64 C53 64.33 53 64.66 53 65 C47.16337639 65.57899306 43.16919432 63.62649076 38.0625 61.125 C37.22710693 60.72152344 36.39171387 60.31804687 35.53100586 59.90234375 C23.35131785 53.86762458 9.67962185 45.67962185 0 36 C-0.08855161 33.3337397 -0.11524673 30.69352886 -0.09765625 28.02734375 C-0.0962413 27.22970108 -0.09482635 26.43205841 -0.09336853 25.61024475 C-0.08775316 23.05262565 -0.07519812 20.49509282 -0.0625 17.9375 C-0.05748698 16.20768355 -0.05292373 14.47786574 -0.04882812 12.74804688 C-0.03777875 8.49866447 -0.02050386 4.24934688 0 0 Z " fill="#9BDBCF" transform="translate(145,293)"/>
<path d="M0 0 C1.32 0.33 2.64 0.66 4 1 C2.68 1.33 1.36 1.66 0 2 C0.02320313 2.97453125 0.04640625 3.9490625 0.0703125 4.953125 C0.27784671 18.41204302 -0.72805012 31.73894828 -1.81640625 45.14770508 C-1.93613856 47.00785481 -1.99626191 48.87307848 -1.98828125 50.73706055 C-2 53 -2 53 -2.625 55.1875 C-2.74875 55.785625 -2.8725 56.38375 -3 57 C-0.47871644 59.52128356 0.51239013 59.29353069 4.0078125 59.4140625 C4.99394531 59.45273437 5.98007812 59.49140625 6.99609375 59.53125 C8.02863281 59.5621875 9.06117188 59.593125 10.125 59.625 C11.16527344 59.66367187 12.20554687 59.70234375 13.27734375 59.7421875 C15.85138311 59.83664766 18.42541155 59.92221214 21 60 C21 60.33 21 60.66 21 61 C16.68751391 61.02886537 12.37505238 61.04675255 8.0625 61.0625 C6.83080078 61.07087891 5.59910156 61.07925781 4.33007812 61.08789062 C3.16025391 61.09111328 1.99042969 61.09433594 0.78515625 61.09765625 C-0.84087524 61.10551147 -0.84087524 61.10551147 -2.49975586 61.11352539 C-5 61 -5 61 -6 60 C-6.66366298 48.44334934 -5.5596506 36.92856766 -4.40087891 25.44067383 C-4.12094585 22.64704104 -3.85870466 19.85209482 -3.59765625 17.05664062 C-3.42291676 15.2707311 -3.24717404 13.48491938 -3.0703125 11.69921875 C-2.99313995 10.86807053 -2.91596741 10.0369223 -2.8364563 9.18058777 C-2.44583939 5.42267786 -2.13063903 3.19595855 0 0 Z " fill="#E1928C" transform="translate(256,246)"/>
<path d="M0 0 C0.66 0 1.32 0 2 0 C-2.10610919 9.87213485 -14.98673697 15.27978971 -24 20 C-24.59441895 20.31356445 -25.18883789 20.62712891 -25.80126953 20.95019531 C-38.40586922 27.49403478 -52.59463086 33.16172332 -67 32 C-64.06030946 30.04020631 -62.44977414 29.51679931 -59.0625 28.875 C-58.20785156 28.70742188 -57.35320312 28.53984375 -56.47265625 28.3671875 C-54 28 -54 28 -50 28 C-50 27.34 -50 26.68 -50 26 C-48.35 25.67 -46.7 25.34 -45 25 C-45 24.67 -45 24.34 -45 24 C-44.35933594 23.89042969 -43.71867187 23.78085937 -43.05859375 23.66796875 C-37.65716476 22.67784093 -32.9025288 21.50341896 -28 19 C-27.67 18.34 -27.34 17.68 -27 17 C-26.01 16.690625 -25.02 16.38125 -24 16.0625 C-23.01 15.711875 -22.02 15.36125 -21 15 C-20.67 14.01 -20.34 13.02 -20 12 C-18.68 12 -17.36 12 -16 12 C-15.67 11.01 -15.34 10.02 -15 9 C-11.535 8.505 -11.535 8.505 -8 8 C-8 7.34 -8 6.68 -8 6 C-6.02678947 4.6273318 -4.02456848 3.29572383 -2 2 C-1.34 1.34 -0.68 0.68 0 0 Z " fill="#8CC3AF" transform="translate(331,332)"/>
<path d="M0 0 C1.11696762 0.00222061 2.23393524 0.00444122 3.38475037 0.00672913 C4.64598221 0.00680466 5.90721405 0.00688019 7.20666504 0.00695801 C8.59341979 0.01206542 9.98017414 0.01728142 11.3669281 0.02259827 C12.77797394 0.0244625 14.18902042 0.02588638 15.60006714 0.02688599 C19.3204272 0.03071072 23.04074845 0.04054062 26.76109314 0.05158997 C30.55482966 0.06180504 34.34857243 0.06638381 38.14231873 0.07142639 C45.59090416 0.08216294 53.03945758 0.09923882 60.48802185 0.12025452 C61.68601634 4.26684825 61.37764105 8.11394498 61.05052185 12.37025452 C60.99831482 13.11533264 60.94610779 13.86041077 60.89231873 14.62806702 C60.76320015 16.45920313 60.62637071 18.28979265 60.48802185 20.12025452 C60.15802185 20.12025452 59.82802185 20.12025452 59.48802185 20.12025452 C59.48802185 13.85025452 59.48802185 7.58025452 59.48802185 1.12025452 C39.68802185 1.45025452 19.88802185 1.78025452 -0.51197815 2.12025452 C-0.51197815 2.78025452 -0.51197815 3.44025452 -0.51197815 4.12025452 C0.08614685 4.16150452 0.68427185 4.20275452 1.30052185 4.24525452 C3.48802185 5.12025452 3.48802185 5.12025452 5.17552185 7.99525452 C6.48802185 11.12025452 6.48802185 11.12025452 7.48802185 14.12025452 C9.42132788 15.21191727 9.42132788 15.21191727 11.48802185 16.12025452 C12.14802185 16.78025452 12.80802185 17.44025452 13.48802185 18.12025452 C13.38636577 21.88152942 12.49723151 23.11014635 9.92552185 25.93275452 C9.12114685 26.65462952 8.31677185 27.37650452 7.48802185 28.12025452 C6.49802185 27.79025452 5.50802185 27.46025452 4.48802185 27.12025452 C4.48802185 26.46025452 4.48802185 25.80025452 4.48802185 25.12025452 C6.11428589 23.73793008 7.78052205 22.40087936 9.48802185 21.12025452 C9.17497365 18.19847131 8.66835294 17.26876248 6.36302185 15.37025452 C5.41427185 14.62775452 4.46552185 13.88525452 3.48802185 13.12025452 C2.18691117 11.81645003 0.91743538 10.48056548 -0.32447815 9.12025452 C-0.92904846 8.46025452 -1.53361877 7.80025452 -2.1565094 7.12025452 C-3.51197815 5.12025452 -3.51197815 5.12025452 -3.51197815 1.12025452 C-2.51197815 0.12025452 -2.51197815 0.12025452 0 0 Z " fill="#DBA19C" transform="translate(184.51197814941406,138.87974548339844)"/>
<path d="M0 0 C-3.33015148 2.92922415 -6.2659291 3.69116791 -10.5625 4.625 C-29.11286948 9.14593064 -45.59816459 19.36016195 -59.22045898 32.54638672 C-62.80699866 36 -62.80699866 36 -65 36 C-63.60669258 32.8142971 -61.97103262 30.80177783 -59.4375 28.4375 C-57.00373705 26.1656506 -56.07740206 25.23220618 -55 22 C-53.66891215 21.65780996 -52.33488899 21.3270478 -51 21 C-48.78876791 19.6464752 -46.6450492 18.26302627 -44.5 16.8125 C-31.51514103 8.25954802 -16.00417647 -0.66684069 0 0 Z " fill="#72B1A1" transform="translate(231,106)"/>
<path d="M0 0 C0.33 0 0.66 0 1 0 C1.09038099 5.15171623 0.84681133 9.91913204 0 15 C-0.66 15 -1.32 15 -2 15 C-1.98839844 15.91523438 -1.97679688 16.83046875 -1.96484375 17.7734375 C-1.95582031 18.96195313 -1.94679688 20.15046875 -1.9375 21.375 C-1.92589844 22.55835938 -1.91429688 23.74171875 -1.90234375 24.9609375 C-2 28 -2 28 -3 30 C-3.21253135 33.99487504 -3.1857921 37.99161471 -3.18530273 41.99169922 C-3.18746123 43.96456056 -3.20588675 45.93738257 -3.22460938 47.91015625 C-3.23571581 55.18857034 -2.83219211 61.94112955 -1 69 C-4.50766292 65.88881415 -4.97235697 62.60420859 -5.6875 58.125 C-5.8127002 57.35833008 -5.93790039 56.59166016 -6.06689453 55.80175781 C-8.94091329 37.0561171 -5.44753468 18.00175167 0 0 Z " fill="#7BC2AF" transform="translate(115,168)"/>
<path d="M0 0 C1.97566188 1.97566188 2.89579072 3.52337094 4.125 6 C4.47820312 6.70125 4.83140625 7.4025 5.1953125 8.125 C6 10 6 10 6 12 C6.66 12 7.32 12 8 12 C9.35278115 13.98689731 10.68568305 15.98745218 12 18 C12.66 18.33 13.32 18.66 14 19 C14 19.99 14 20.98 14 22 C14.87785156 22.40798828 14.87785156 22.40798828 15.7734375 22.82421875 C17.96149162 23.97966487 19.70278698 25.26246014 21.625 26.8125 C28.39546525 31.97214824 36.01496276 35.19044986 44 38 C44 38.33 44 38.66 44 39 C37.04351205 39.5691672 32.97521098 37.94843199 27 34.5 C26.22527344 34.07074219 25.45054687 33.64148438 24.65234375 33.19921875 C22.75981645 32.1478147 20.87867145 31.07596638 19 30 C19 29.34 19 28.68 19 28 C18.41992188 27.7421875 17.83984375 27.484375 17.2421875 27.21875 C9.88037241 23.21720591 4.39474425 15.49919112 1 8 C0.323826 5.23261239 0.10609905 2.86467423 0 0 Z " fill="#47867F" transform="translate(116,243)"/>
<path d="M0 0 C1.32 0 2.64 0 4 0 C4 0.66 4 1.32 4 2 C4.66 2 5.32 2 6 2 C6 2.66 6 3.32 6 4 C6.66 4 7.32 4 8 4 C8 4.66 8 5.32 8 6 C8.66 6 9.32 6 10 6 C10 6.66 10 7.32 10 8 C10.66 8 11.32 8 12 8 C13.65625 9.79296875 13.65625 9.79296875 15.5 12.1875 C16.1084375 12.96480469 16.716875 13.74210938 17.34375 14.54296875 C21.92864189 21.34461261 22.58816237 29.55949808 21.71875 37.6015625 C20.74132801 42.34205913 19.04766305 46.62544713 17 51 C16.67 51 16.34 51 16 51 C15.65896456 47.47596713 16.31449446 44.98914166 17.5625 41.75 C19.30409195 36.82775421 18.90913151 33.05588444 18 28 C17.87625 26.783125 17.7525 25.56625 17.625 24.3125 C16.95144819 20.74267543 15.85396903 18.11466797 14 15 C13.34 14.67 12.68 14.34 12 14 C12 13.01 12 12.02 12 11 C11.34 11 10.68 11 10 11 C10 10.34 10 9.68 10 9 C9.34 9 8.68 9 8 9 C8 8.34 8 7.68 8 7 C7.01 6.67 6.02 6.34 5 6 C5 5.01 5 4.02 5 3 C3.35 3 1.7 3 0 3 C0.33 3.66 0.66 4.32 1 5 C1.039992 6.99960012 1.04346799 9.00047242 1 11 C0.01 11.33 -0.98 11.66 -2 12 C-1.85904936 10.3745692 -1.71207913 8.74965949 -1.5625 7.125 C-1.48128906 6.22007812 -1.40007812 5.31515625 -1.31640625 4.3828125 C-1 2 -1 2 0 0 Z " fill="#DB8989" transform="translate(313,205)"/>
<path d="M0 0 C-13.74587624 11.60512502 -28.73299018 17.26725449 -47 16 C-51.56570284 15.29814077 -55.12526167 14.58315889 -59 12 C-58.28046143 12.01571045 -57.56092285 12.0314209 -56.81958008 12.04760742 C-31.27015181 12.72351604 -31.27015181 12.72351604 -8 3 C-7.67 2.01 -7.34 1.02 -7 0 C-4.05610218 -1.17755913 -3.10046087 -1.03348696 0 0 Z " fill="#76A9A0" transform="translate(220,270)"/>
<path d="M0 0 C0 0.66 0 1.32 0 2 C-0.66 2 -1.32 2 -2 2 C-2 2.66 -2 3.32 -2 4 C-9.89818803 7.42751556 -17.44337767 8.07708669 -26 8 C-26 8.33 -26 8.66 -26 9 C-30.35990873 9.07418046 -34.71948279 9.12861544 -39.07983398 9.16479492 C-40.56297199 9.17987768 -42.04606544 9.20034689 -43.52905273 9.22631836 C-45.66140745 9.26272616 -47.79317235 9.27973073 -49.92578125 9.29296875 C-51.20880127 9.3086792 -52.49182129 9.32438965 -53.8137207 9.34057617 C-57 9 -57 9 -58.94213867 7.48168945 C-59.29123291 6.99273193 -59.64032715 6.50377441 -60 6 C-59.21052979 6.01047363 -58.42105957 6.02094727 -57.60766602 6.03173828 C-30.47655267 6.75589714 -30.47655267 6.75589714 -4.22265625 0.8046875 C-2 0 -2 0 0 0 Z " fill="#78C9B7" transform="translate(282,329)"/>
<path d="M0 0 C2.31 0.33 4.62 0.66 7 1 C4.29323556 3.79308494 1.50389525 6.29560793 -1.5625 8.6875 C-2.32691406 9.28949219 -3.09132813 9.89148438 -3.87890625 10.51171875 C-6 12 -6 12 -9 13 C-9 13.66 -9 14.32 -9 15 C-9.66 15 -10.32 15 -11 15 C-11.268125 15.598125 -11.53625 16.19625 -11.8125 16.8125 C-12.99917406 18.99847854 -14.09599113 20.41332594 -16 22 C-16.66 22 -17.32 22 -18 22 C-18 22.66 -18 23.32 -18 24 C-18.66 24 -19.32 24 -20 24 C-20.23460937 24.56203125 -20.46921875 25.1240625 -20.7109375 25.703125 C-22.30663 28.54635891 -24.28924543 30.48098127 -26.625 32.75 C-27.44226563 33.54921875 -28.25953125 34.3484375 -29.1015625 35.171875 C-29.72804688 35.77515625 -30.35453125 36.3784375 -31 37 C-31.495 35.515 -31.495 35.515 -32 34 C-31.15695312 33.18015625 -30.31390625 32.3603125 -29.4453125 31.515625 C-28.33827684 30.42735266 -27.23152061 29.33879602 -26.125 28.25 C-25.56941406 27.71117187 -25.01382812 27.17234375 -24.44140625 26.6171875 C-20.55991414 22.78524313 -20.55991414 22.78524313 -18 18 C-17.34 18 -16.68 18 -16 18 C-15.67 17.01 -15.34 16.02 -15 15 C-13.67592331 14.31513275 -12.34090759 13.65129797 -11 13 C-8.59331488 10.88503429 -7.01043835 9.01766491 -5.375 6.25 C-4.92125 5.5075 -4.4675 4.765 -4 4 C-3.34 4 -2.68 4 -2 4 C-2 3.34 -2 2.68 -2 2 C-1.34 2 -0.68 2 0 2 C0 1.34 0 0.68 0 0 Z " fill="#7EB7AB" transform="translate(300,185)"/>
<path d="M0 0 C3.3 0 6.6 0 10 0 C10 0.99 10 1.98 10 3 C10.99 2.67 11.98 2.34 13 2 C16.5425759 3.99269894 18.02097655 6.53670896 20 10 C20.721875 10.886875 21.44375 11.77375 22.1875 12.6875 C24 15 24 15 24 17 C24.66 17 25.32 17 26 17 C31.37335526 27.50246711 31.37335526 27.50246711 30.625 34.3125 C30.45871094 35.91544922 30.45871094 35.91544922 30.2890625 37.55078125 C30.14597656 38.76314453 30.14597656 38.76314453 30 40 C29.67 40 29.34 40 29 40 C28.85304688 39.12859375 28.70609375 38.2571875 28.5546875 37.359375 C26.36539672 25.73348605 22.85021379 14.40835407 13 7 C8.87944337 4.4364476 4.85876353 2.60734544 0 2 C0 1.34 0 0.68 0 0 Z " fill="#87CBB9" transform="translate(324,185)"/>
<path d="M0 0 C0.99 0 1.98 0 3 0 C2.70996094 0.68707031 2.41992188 1.37414062 2.12109375 2.08203125 C0.48243783 6.34710432 -0.67219435 10.73905916 -1.90234375 15.13671875 C-3 18 -3 18 -6 20 C-7.01187895 21.65948148 -8.0126546 23.32580562 -9 25 C-9.66 25.33 -10.32 25.66 -11 26 C-11 26.99 -11 27.98 -11 29 C-12.66279327 30.0064275 -14.32983484 31.00585407 -16 32 C-16.33 32.66 -16.66 33.32 -17 34 C-18.40163997 36.80327994 -20.21850735 37.67879099 -23 39 C-23.66 38.67 -24.32 38.34 -25 38 C-24.45472656 37.44054687 -23.90945313 36.88109375 -23.34765625 36.3046875 C-13.21158368 25.52753 -6.29364211 13.31580871 0 0 Z " fill="#78C8B4" transform="translate(347,263)"/>
<path d="M0 0 C4.29181724 0.49402213 6.85845266 3.23700155 9.9375 6 C19.49683611 14.31654092 29.69719576 21.22401787 41 27 C41 27.33 41 27.66 41 28 C35.9532923 28.29686516 33.05243256 28.0926459 29 25 C27.33333333 23.33333333 25.66666667 21.66666667 24 20 C21.35534895 18.11096354 18.781559 16.3907795 15.875 14.9375 C13.68197156 13.84098578 11.86125123 12.5953582 10 11 C10 10.34 10 9.68 10 9 C9.401875 8.9175 8.80375 8.835 8.1875 8.75 C5.38926857 7.79060637 4.69589407 6.35950479 3 4 C2.01 3.67 1.02 3.34 0 3 C0 2.01 0 1.02 0 0 Z " fill="#82C3B2" transform="translate(153,298)"/>
<path d="M0 0 C11.78798179 0.75242437 20.2720622 8.77100999 27.96484375 17.13671875 C29.34022508 18.73216109 30.67563144 20.36196521 32 22 C31.67 22.66 31.34 23.32 31 24 C23.09744094 19.3011811 23.09744094 19.3011811 22.3125 16.875 C22.209375 16.25625 22.10625 15.6375 22 15 C19.69 14.34 17.38 13.68 15 13 C14.67 11.02 14.34 9.04 14 7 C12.35 7 10.7 7 9 7 C8.67 6.01 8.34 5.02 8 4 C5.69 4 3.38 4 1 4 C0.67 2.68 0.34 1.36 0 0 Z " fill="#84CAB9" transform="translate(339,160)"/>
<path d="M0 0 C0.66 1.32 1.32 2.64 2 4 C-0.85750191 8.58515474 -4.00917404 12.28001679 -7.859375 16.0546875 C-8.40861633 16.60109894 -8.95785767 17.14751038 -9.52374268 17.71047974 C-11.26114792 19.43678305 -13.00541079 21.15596018 -14.75 22.875 C-15.9366601 24.05161739 -17.12286268 25.22869639 -18.30859375 26.40625 C-21.20046788 29.27619645 -24.09850916 32.13977763 -27 35 C-28 32 -28 32 -26.9375 29.4375 C-25 27 -25 27 -21.9375 26 C-18.80379831 25.31306011 -18.80379831 25.31306011 -17.75 22.5625 C-17.5025 21.716875 -17.255 20.87125 -17 20 C-15 17 -15 17 -12 16 C-11.566875 15.071875 -11.566875 15.071875 -11.125 14.125 C-10 12 -10 12 -7.5625 10.625 C-4.33658987 8.57930089 -3.46286636 6.46468347 -2 3 C-1.34 3 -0.68 3 0 3 C0 2.01 0 1.02 0 0 Z " fill="#DB8783" transform="translate(327,252)"/>
<path d="M0 0 C0.99 0.66 1.98 1.32 3 2 C3 3.32 3 4.64 3 6 C2.34 6 1.68 6 1 6 C1.33 12.27 1.66 18.54 2 25 C3.32 25.66 4.64 26.32 6 27 C9.07563891 28.53781946 9.70322574 30.91244223 11 34 C10.67 34.99 10.34 35.98 10 37 C9.34 37 8.68 37 8 37 C8 36.34 8 35.68 8 35 C7.34 35 6.68 35 6 35 C0.23731363 27.35817677 -2.66398591 19.62779567 -2 10 C-1.42831937 6.64384046 -0.74838032 3.32093766 0 0 Z " fill="#D89691" transform="translate(158,200)"/>
<path d="M0 0 C4.7036975 1.3571091 8.56927042 3.37989345 12.625 6.0625 C13.2245752 6.45300537 13.82415039 6.84351074 14.44189453 7.24584961 C20.49319782 11.23518603 26.27170357 15.56214398 32 20 C30.02 20.99 30.02 20.99 28 22 C27.34 21.01 26.68 20.02 26 19 C23.44816596 17.79549696 23.44816596 17.79549696 21 17 C21 16.01 21 15.02 21 14 C20.01 14 19.02 14 18 14 C18 13.34 18 12.68 18 12 C16.35 12 14.7 12 13 12 C13 11.34 13 10.68 13 10 C10.34771188 8.92474806 7.71631546 7.90543849 5 7 C5 5.68 5 4.36 5 3 C3.68 3.33 2.36 3.66 1 4 C0.67 2.68 0.34 1.36 0 0 Z " fill="#80CCBA" transform="translate(315,91)"/>
<path d="M0 0 C0.375 2.6875 0.375 2.6875 0 6 C-1.81426684 8.16704095 -3.61948534 9.38125003 -6 11 C-6.66 11 -7.32 11 -8 11 C-8 11.66 -8 12.32 -8 13 C-10.125 14.75 -10.125 14.75 -13 16 C-16.62187134 15.2031883 -18.90966891 14.06022073 -22 12 C-22.68268138 10.67479497 -23.3507041 9.34187818 -24 8 C-24.66 7.67 -25.32 7.34 -26 7 C-26 6.01 -26 5.02 -26 4 C-22.12488273 4.54984772 -20.40423494 6.27555331 -17.75 9.0625 C-17.04359375 9.79597656 -16.3371875 10.52945312 -15.609375 11.28515625 C-15.07828125 11.85105469 -14.5471875 12.41695313 -14 13 C-13.01 12.67 -12.02 12.34 -11 12 C-11 11.34 -11 10.68 -11 10 C-10.34 10 -9.68 10 -9 10 C-8.690625 9.195625 -8.690625 9.195625 -8.375 8.375 C-6.93750621 5.89205618 -3.18977926 0 0 0 Z " fill="#DE928D" transform="translate(287,247)"/>
<path d="M0 0 C0.33 0 0.66 0 1 0 C0.21889502 27.16403693 0.21889502 27.16403693 -2 38 C-4.38671875 38.578125 -4.38671875 38.578125 -7 39 C-8.8125 37.75 -8.8125 37.75 -10 36 C-10 35.01 -10 34.02 -10 33 C-9.34 33 -8.68 33 -8 33 C-8 33.66 -8 34.32 -8 35 C-6.68 35 -5.36 35 -4 35 C-3.97494385 34.43603516 -3.9498877 33.87207031 -3.92407227 33.29101562 C-3.80681699 30.69385118 -3.68468734 28.0969369 -3.5625 25.5 C-3.50352539 24.1696875 -3.50352539 24.1696875 -3.44335938 22.8125 C-3.18915913 17.49384873 -2.73323663 12.2743744 -2 7 C-1.34 7 -0.68 7 0 7 C0 4.69 0 2.38 0 0 Z " fill="#DB9796" transform="translate(243,161)"/>
<path d="M0 0 C0.33 0 0.66 0 1 0 C1.06493405 4.09084511 1.0035928 7.63722662 -1.484375 11.015625 C-3.26205506 12.76291737 -5.09975156 14.3879211 -7 16 C-7.7425 16.804375 -8.485 17.60875 -9.25 18.4375 C-11 20 -11 20 -14 20 C-14 20.66 -14 21.32 -14 22 C-16.25 24.6875 -16.25 24.6875 -19 27 C-21.3125 26.8125 -21.3125 26.8125 -23 26 C-21.68 25.34 -20.36 24.68 -19 24 C-19 23.34 -19 22.68 -19 22 C-18.34 22 -17.68 22 -17 22 C-16.67 21.01 -16.34 20.02 -16 19 C-15.34 19 -14.68 19 -14 19 C-14 18.34 -14 17.68 -14 17 C-13.34 17 -12.68 17 -12 17 C-12 16.34 -12 15.68 -12 15 C-11.34 15 -10.68 15 -10 15 C-10 14.34 -10 13.68 -10 13 C-9.34 13 -8.68 13 -8 13 C-8 12.34 -8 11.68 -8 11 C-7.34 11 -6.68 11 -6 11 C-5.7525 10.484375 -5.505 9.96875 -5.25 9.4375 C-3.60418384 6.22815849 -1.8023904 3.12414336 0 0 Z " fill="#DE928E" transform="translate(310,220)"/>
<path d="M0 0 C0.33 0 0.66 0 1 0 C1.02578125 1.23234375 1.0515625 2.4646875 1.078125 3.734375 C1.48368797 17.09497107 3.23885701 27.78946013 11 39 C7.76513406 38.29822123 6.10818805 37.63523506 4 35 C4 34.34 4 33.68 4 33 C3.34 33 2.68 33 2 33 C-2.60145419 22.91436368 -1.06132843 10.74390937 0 0 Z " fill="#75D0BB" transform="translate(139,204)"/>
<path d="M0 0 C0.33 0 0.66 0 1 0 C1 12.54 1 25.08 1 38 C-4.37022928 36.92595414 -5.57161553 36.01610752 -9 32 C-9 31.34 -9 30.68 -9 30 C-9.5775 29.773125 -10.155 29.54625 -10.75 29.3125 C-13.5663661 27.66961977 -15.08077114 25.60466773 -17 23 C-12.84166066 23 -10.84483559 25.23002851 -8 28 C-7.278125 28.928125 -6.55625 29.85625 -5.8125 30.8125 C-4.9153125 31.8953125 -4.9153125 31.8953125 -4 33 C-3.01 33 -2.02 33 -1 33 C-0.67 33.99 -0.34 34.98 0 36 C0 24.12 0 12.24 0 0 Z " fill="#7DB5A6" transform="translate(346,114)"/>
<path d="M0 0 C0.66 0 1.32 0 2 0 C-1.35971214 8.17227278 -11.09370506 12.87922172 -18.45703125 16.96875 C-21.17692085 18.07174671 -23.09468396 18.20864029 -26 18 C-26 18.66 -26 19.32 -26 20 C-26.66 19.67 -27.32 19.34 -28 19 C-27.67 18.34 -27.34 17.68 -27 17 C-25.515 16.5359375 -25.515 16.5359375 -24 16.0625 C-23.01 15.711875 -22.02 15.36125 -21 15 C-20.67 14.01 -20.34 13.02 -20 12 C-18.68 12 -17.36 12 -16 12 C-15.67 11.01 -15.34 10.02 -15 9 C-11.535 8.505 -11.535 8.505 -8 8 C-8 7.34 -8 6.68 -8 6 C-6.02678947 4.6273318 -4.02456848 3.29572383 -2 2 C-1.34 1.34 -0.68 0.68 0 0 Z " fill="#80C0A9" transform="translate(331,332)"/>
<path d="M0 0 C11.46878752 1.80802062 22.81950668 5.39034042 33 11 C33 11.33 33 11.66 33 12 C26.69486695 11.63209485 21.76007619 10.77337002 16 8 C14.54439593 7.49210937 13.08599174 6.99217807 11.625 6.5 C10.42875 6.005 9.2325 5.51 8 5 C7.67 4.01 7.34 3.02 7 2 C4.69 1.67 2.38 1.34 0 1 C0 0.67 0 0.34 0 0 Z " fill="#83CBB9" transform="translate(282,79)"/>
<path d="M0 0 C1.32 0.33 2.64 0.66 4 1 C2.68 1.33 1.36 1.66 0 2 C0.04640625 3.03253906 0.0928125 4.06507813 0.140625 5.12890625 C0.52573877 18.10543498 -1.44639125 30.30326712 -4 43 C-4.33 43 -4.66 43 -5 43 C-4.5577196 32.81591183 -3.96751418 22.65440078 -3.0625 12.5 C-2.98789551 11.59870361 -2.91329102 10.69740723 -2.83642578 9.76879883 C-2.71823486 8.50652466 -2.71823486 8.50652466 -2.59765625 7.21875 C-2.53070557 6.47560547 -2.46375488 5.73246094 -2.39477539 4.96679688 C-2 3 -2 3 0 0 Z " fill="#D79B97" transform="translate(256,246)"/>
<path d="M0 0 C2.475 0.495 2.475 0.495 5 1 C5.66 1.99 6.32 2.98 7 4 C5.35 3.67 3.7 3.34 2 3 C2.01047363 3.85754883 2.02094727 4.71509766 2.03173828 5.59863281 C2.06588296 8.78921513 2.09092959 11.97970412 2.10986328 15.17041016 C2.11990253 16.54967315 2.13353677 17.92891496 2.15087891 19.30810547 C2.17521754 21.2938514 2.18543255 23.2797545 2.1953125 25.265625 C2.20578613 26.45961914 2.21625977 27.65361328 2.22705078 28.88378906 C2 32 2 32 0 36 C0 24.12 0 12.24 0 0 Z " fill="#64B89F" transform="translate(146,292)"/>
<path d="M0 0 C0.33 0.99 0.66 1.98 1 3 C-2.05023004 6.12446804 -5.1102572 9.23890149 -8.1796875 12.34448242 C-9.22214157 13.40200929 -10.26188549 14.4622149 -11.29882812 15.52514648 C-12.79110035 17.05386789 -14.29290176 18.57264335 -15.796875 20.08984375 C-16.69760742 21.00628662 -17.59833984 21.92272949 -18.52636719 22.86694336 C-20.84300538 24.86462081 -22.01671424 25.65600889 -25 26 C-22.98235983 21.22137856 -21.38731287 19.5690015 -17 17 C-15.55490458 15.70907904 -14.15272799 14.36880017 -12.79296875 12.98828125 C-12.04208984 12.23095703 -11.29121094 11.47363281 -10.51757812 10.69335938 C-9.74865234 9.90767578 -8.97972656 9.12199219 -8.1875 8.3125 C-7.00510742 7.11657227 -7.00510742 7.11657227 -5.79882812 5.89648438 C-3.86127415 3.9354449 -1.92855724 1.96988119 0 0 Z " fill="#73B3A3" transform="translate(247,240)"/>
<path d="M0 0 C0 0.66 0 1.32 0 2 C-0.66 2 -1.32 2 -2 2 C-2 2.66 -2 3.32 -2 4 C-11.60853053 8.16973966 -20.70873384 8.45104621 -31 7 C-31 6.67 -31 6.34 -31 6 C-29.91203125 5.90203125 -28.8240625 5.8040625 -27.703125 5.703125 C-19.48090313 4.89093792 -12.01252565 3.74062177 -4.22265625 0.8046875 C-2 0 -2 0 0 0 Z " fill="#96D1C1" transform="translate(282,329)"/>
<path d="M0 0 C10.89 0 21.78 0 33 0 C31.68 0.33 30.36 0.66 29 1 C29 1.66 29 2.32 29 3 C19.3576514 4.40252343 8.50319225 5.66879484 0 0 Z " fill="#619C93" transform="translate(161,282)"/>
<path d="M0 0 C3.57277532 0.6286032 6.8001565 1.58410691 10.1875 2.875 C15.39872889 4.81504989 20.65558543 6.4697121 26 8 C26 8.66 26 9.32 26 10 C21.77102913 10.39646602 18.81358533 9.27080418 14.9765625 7.71875 C12.8624521 6.87337035 12.8624521 6.87337035 9.9375 6.5625 C6.01080259 5.81057922 3.390227 4.10194074 0 2 C0 1.34 0 0.68 0 0 Z " fill="#8ECFBF" transform="translate(194,326)"/>
<path d="M0 0 C0.66 1.65 1.32 3.3 2 5 C2.99 5 3.98 5 5 5 C5 5.99 5 6.98 5 8 C-0.44792005 7.43250833 -4.98240699 6.24926583 -10 4 C-10.33 3.01 -10.66 2.02 -11 1 C-7.27569643 0.30710631 -3.78916254 -0.11144596 0 0 Z " fill="#66CCB4" transform="translate(291,106)"/>
<path d="M0 0 C0 3.44360632 -0.79591532 4.74795392 -2.5 7.6875 C-2.9640625 8.49574219 -3.428125 9.30398437 -3.90625 10.13671875 C-4.2671875 10.75160156 -4.628125 11.36648437 -5 12 C-6.32 12 -7.64 12 -9 12 C-9.0825 12.598125 -9.165 13.19625 -9.25 13.8125 C-10.21576779 16.62932273 -11.48868567 17.47799132 -14 19 C-14.66 19 -15.32 19 -16 19 C-16 19.66 -16 20.32 -16 21 C-17.65 21 -19.3 21 -21 21 C-19.71034824 19.62437146 -18.37310707 18.29233607 -17 17 C-16.34 17 -15.68 17 -15 17 C-15 16.34 -15 15.68 -15 15 C-12.625 12.375 -12.625 12.375 -10 10 C-9.34 10 -8.68 10 -8 10 C-8 9.34 -8 8.68 -8 8 C-7.34 8 -6.68 8 -6 8 C-6 7.34 -6 6.68 -6 6 C-5.34 6 -4.68 6 -4 6 C-4 5.34 -4 4.68 -4 4 C-3.34 4 -2.68 4 -2 4 C-1.34 2.68 -0.68 1.36 0 0 Z " fill="#8BC9B8" transform="translate(215,229)"/>
<path d="M0 0 C-2.80530847 2.8546576 -5.61707696 5.70277231 -8.43505859 8.54492188 C-9.39324956 9.51318538 -10.34963982 10.48323426 -11.30419922 11.45507812 C-12.6746382 12.8497097 -14.05206367 14.23746521 -15.4296875 15.625 C-16.25710449 16.46289062 -17.08452148 17.30078125 -17.93701172 18.1640625 C-20 20 -20 20 -22 20 C-20.44396229 16.18063472 -18.04395069 13.73955562 -15 11 C-14.34 11 -13.68 11 -13 11 C-13 10.34 -13 9.68 -13 9 C-12.34 9 -11.68 9 -11 9 C-11 8.34 -11 7.68 -11 7 C-10.34 7 -9.68 7 -9 7 C-9 5.35 -9 3.7 -9 2 C-3.375 -1.125 -3.375 -1.125 0 0 Z " fill="#D48B89" transform="translate(217,189)"/>
<path d="M0 0 C0.66 0.33 1.32 0.66 2 1 C1.47585858 4.77381819 0.97299541 7.49153512 -2 10 C-5.04287041 10.45224313 -7.96170128 10.49581345 -11 10 C-11.66 9.34 -12.32 8.68 -13 8 C-10.880788 6.63594382 -8.75551882 5.28368225 -6.625 3.9375 C-6.02171875 3.54755859 -5.4184375 3.15761719 -4.796875 2.75585938 C-3.23507443 1.77539568 -1.62007786 0.88083925 0 0 Z " fill="#7FCCBA" transform="translate(303,317)"/>
<path d="M0 0 C0.99 0.33 1.98 0.66 3 1 C0.44614029 5.96531089 -3.235591 9.46364981 -7.1875 13.3125 C-7.84169922 13.95767578 -8.49589844 14.60285156 -9.16992188 15.26757812 C-10.77548783 16.84970516 -12.3855469 18.4269513 -14 20 C-14.99 19.67 -15.98 19.34 -17 19 C-16.30132812 18.41992188 -15.60265625 17.83984375 -14.8828125 17.2421875 C-13.97273438 16.46101563 -13.06265625 15.67984375 -12.125 14.875 C-11.22007812 14.10929687 -10.31515625 13.34359375 -9.3828125 12.5546875 C-6.78832621 9.77305793 -5.92116636 7.65290108 -5 4 C-3.35 3.67 -1.7 3.34 0 3 C0 2.01 0 1.02 0 0 Z " fill="#91CBB7" transform="translate(351,311)"/>
<path d="M0 0 C1.32 0.99 2.64 1.98 4 3 C2.65072455 7.53847198 0.80840652 11.31932246 -1.625 15.375 C-2.25664062 16.43460937 -2.88828125 17.49421875 -3.5390625 18.5859375 C-4.02117187 19.38257813 -4.50328125 20.17921875 -5 21 C-6.29227216 16.81857651 -5.54613006 14.09724467 -4 10 C-3.01 9.67 -2.02 9.34 -1 9 C-0.67 6.03 -0.34 3.06 0 0 Z " fill="#93D0C2" transform="translate(369,279)"/>
<path d="M0 0 C-3.42652401 3.0603306 -7.07054687 4.02518855 -11.4375 5.0625 C-15.7602176 6.12086449 -19.86725409 7.33664304 -24 9 C-26.8125 9.125 -26.8125 9.125 -29 9 C-21.02554555 2.58019836 -10.12811819 -0.42200492 0 0 Z " fill="#5EA195" transform="translate(231,106)"/>
<path d="M0 0 C3.98193402 1.60790685 6.71258185 4.3803804 9.6875 7.375 C10.18572266 7.85710937 10.68394531 8.33921875 11.19726562 8.8359375 C13.75804264 11.39323992 15.62405193 13.31046316 16 17 C13.3333581 18.33332095 11.83319697 17.67102033 9 17 C10.32 16.67 11.64 16.34 13 16 C8.36952798 10.22871789 8.36952798 10.22871789 2.5625 5.75 C1.716875 5.1725 0.87125 4.595 0 4 C0 2.68 0 1.36 0 0 Z " fill="#D5938C" transform="translate(298,288)"/>
<path d="M0 0 C1.98 0 3.96 0 6 0 C6 0.33 6 0.66 6 1 C6.85464844 1.06058594 7.70929688 1.12117188 8.58984375 1.18359375 C9.69457031 1.26738281 10.79929688 1.35117187 11.9375 1.4375 C13.03964844 1.51871094 14.14179688 1.59992188 15.27734375 1.68359375 C18 2 18 2 19 3 C21.34987262 3.23527773 23.70556039 3.41386417 26.0625 3.5625 C27.35285156 3.64628906 28.64320313 3.73007812 29.97265625 3.81640625 C31.47119141 3.90728516 31.47119141 3.90728516 33 4 C33 4.33 33 4.66 33 5 C21.48527482 5.25940557 10.40591948 4.59882726 -1 3 C-0.67 2.01 -0.34 1.02 0 0 Z " fill="#91C8B8" transform="translate(219,362)"/>
<path d="M0 0 C0.66 0.99 1.32 1.98 2 3 C1.071875 4.1446875 1.071875 4.1446875 0.125 5.3125 C-3.1959025 9.51246493 -4.68636839 12.97243237 -6.12109375 18.0390625 C-6.55615234 19.00972656 -6.55615234 19.00972656 -7 20 C-7.99 20.33 -8.98 20.66 -10 21 C-8.35402774 13.75772204 -5.30211734 5.30211734 0 0 Z " fill="#78BFAF" transform="translate(126,147)"/>
<path d="M0 0 C0.77263184 0.03472412 1.54526367 0.06944824 2.34130859 0.10522461 C6.44302457 0.34836527 9.93144425 0.71237463 13.625 2.6875 C14.12 3.6775 14.12 3.6775 14.625 4.6875 C13.69042969 4.55472656 12.75585938 4.42195312 11.79296875 4.28515625 C1.08480412 2.82520288 -9.58045907 2.13336147 -20.375 1.6875 C-20.375 1.3575 -20.375 1.0275 -20.375 0.6875 C-13.54305899 -0.29064133 -6.87374892 -0.35058768 0 0 Z " fill="#8FD3C3" transform="translate(323.375,155.3125)"/>
<path d="M0 0 C-1 3 -1 3 -3 4 C-3.72159424 5.64363134 -4.39351421 7.31050386 -5 9 C-5.66 9 -6.32 9 -7 9 C-7.2475 9.639375 -7.495 10.27875 -7.75 10.9375 C-9 13 -9 13 -11.125 13.75 C-12.053125 13.87375 -12.053125 13.87375 -13 14 C-11.79126165 7.95630823 -6.68058806 0 0 0 Z " fill="#7FC1AF" transform="translate(270,177)"/>
<path d="M0 0 C1.13500694 0.88312038 2.25761307 1.78218855 3.375 2.6875 C4.00148438 3.18636719 4.62796875 3.68523437 5.2734375 4.19921875 C7 6 7 6 9 11 C2.73 11 -3.54 11 -10 11 C-10 10.34 -10 9.68 -10 9 C-5.05 8.34 -0.1 7.68 5 7 C3.35 5.35 1.7 3.7 0 2 C0 1.34 0 0.68 0 0 Z " fill="#DC7E78" transform="translate(303,295)"/>
<path d="M0 0 C1.97566188 1.97566188 2.89579072 3.52337094 4.125 6 C4.47820312 6.70125 4.83140625 7.4025 5.1953125 8.125 C6 10 6 10 6 12 C6.66 12 7.32 12 8 12 C9.32 14.31 10.64 16.62 12 19 C11.34 19.66 10.68 20.32 10 21 C-0.73047576 8.03523339 -0.73047576 8.03523339 0 0 Z " fill="#67A19A" transform="translate(116,243)"/>
<path d="M0 0 C0.94602608 3.0851746 1.01578237 5.49259007 0.625 8.6875 C0.53476563 9.47511719 0.44453125 10.26273438 0.3515625 11.07421875 C0 13 0 13 -1 14 C-8.21817221 13.64500792 -8.21817221 13.64500792 -11.5 10.9375 C-11.995 10.298125 -12.49 9.65875 -13 9 C-12.278125 9.144375 -11.55625 9.28875 -10.8125 9.4375 C-9.4203125 9.7159375 -9.4203125 9.7159375 -8 10 C-6.33333333 10.33333333 -4.66666667 10.66666667 -3 11 C-3.061875 10.113125 -3.12375 9.22625 -3.1875 8.3125 C-2.98048018 4.65514983 -2.083926 2.95222849 0 0 Z " fill="#D49692" transform="translate(181,228)"/>
<path d="M0 0 C0.66 0.33 1.32 0.66 2 1 C1.54109375 1.42410156 1.0821875 1.84820312 0.609375 2.28515625 C-3.54059929 6.25204344 -6.39514362 9.88676339 -9 15 C-9.4125 15.804375 -9.825 16.60875 -10.25 17.4375 C-10.4975 17.953125 -10.745 18.46875 -11 19 C-12.41428571 10.82857143 -12.41428571 10.82857143 -11 8 C-8.8125 6.5625 -8.8125 6.5625 -6 5 C-3.9406727 3.39507826 -1.98005566 1.70376882 0 0 Z " fill="#DD928B" transform="translate(193,209)"/>
<path d="M0 0 C0.33 0 0.66 0 1 0 C1.41277905 26.17654243 1.41277905 26.17654243 -1 36 C-1.99 35.34 -2.98 34.68 -4 34 C-3.59841164 30.65343037 -3.22968987 27.58858028 -2 24.4375 C-0.61565582 19.67881688 -0.53542006 15.05791677 -0.375 10.125 C-0.33632813 9.15046875 -0.29765625 8.1759375 -0.2578125 7.171875 C-0.16406967 4.7814328 -0.0783617 2.39098756 0 0 Z " fill="#A6D1C7" transform="translate(384,219)"/>
<path d="M0 0 C0.99 0.33 1.98 0.66 3 1 C4.55929841 6.87735556 3.60283917 11.24012603 1.6875 16.9375 C1.46231689 17.61240479 1.23713379 18.28730957 1.00512695 18.98266602 C-0.72590728 23.86295364 -0.72590728 23.86295364 -3 25 C-2.67 22.69 -2.34 20.38 -2 18 C-1.34 18 -0.68 18 0 18 C0 12.06 0 6.12 0 0 Z " fill="#83CAB9" transform="translate(376,256)"/>
<path d="M0 0 C2.375 -0.1875 2.375 -0.1875 5 0 C5.66 0.99 6.32 1.98 7 3 C6.125 5.6875 6.125 5.6875 5 8 C4.01 8 3.02 8 2 8 C1.34 8.66 0.68 9.32 0 10 C-1.125 3.375 -1.125 3.375 0 0 Z " fill="#F4887D" transform="translate(256,248)"/>
<path d="M0 0 C0.33 1.32 0.66 2.64 1 4 C0.34 4 -0.32 4 -1 4 C-1 4.66 -1 5.32 -1 6 C-1.66 6 -2.32 6 -3 6 C-3 6.66 -3 7.32 -3 8 C-4.875 10.125 -4.875 10.125 -7 12 C-7.66 12 -8.32 12 -9 12 C-9.66 13.32 -10.32 14.64 -11 16 C-12.32 15.67 -13.64 15.34 -15 15 C-13.71034824 13.62437146 -12.37310707 12.29233607 -11 11 C-10.34 11 -9.68 11 -9 11 C-9 10.34 -9 9.68 -9 9 C-8.34 9 -7.68 9 -7 9 C-6.773125 8.443125 -6.54625 7.88625 -6.3125 7.3125 C-4.64103234 4.36753316 -2.44723648 2.31843456 0 0 Z " fill="#A3D0C4" transform="translate(231,213)"/>
<path d="M0 0 C0 0.33 0 0.66 0 1 C-0.85464844 1.19335938 -1.70929688 1.38671875 -2.58984375 1.5859375 C-3.69457031 1.84632813 -4.79929687 2.10671875 -5.9375 2.375 C-7.03964844 2.63023437 -8.14179688 2.88546875 -9.27734375 3.1484375 C-10.62505859 3.56996094 -10.62505859 3.56996094 -12 4 C-12.33 4.66 -12.66 5.32 -13 6 C-14.99338221 6.37086181 -16.99512332 6.69737711 -19 7 C-21.01089078 7.63305821 -23.01463373 8.29094062 -25 9 C-22.42544766 4.19416897 -17.85614163 2.80272398 -13 1 C-8.677862 -0.265016 -4.47312112 -0.07581561 0 0 Z " fill="#86C4B3" transform="translate(308,157)"/>
<path d="M0 0 C2.475 0.99 2.475 0.99 5 2 C5 2.66 5 3.32 5 4 C5.71542969 4.12246094 6.43085938 4.24492187 7.16796875 4.37109375 C10.05112713 5.01135375 12.58592473 5.93551556 15.3125 7.0625 C16.19550781 7.42472656 17.07851562 7.78695313 17.98828125 8.16015625 C18.65214844 8.43730469 19.31601563 8.71445312 20 9 C20 9.33 20 9.66 20 10 C14.47345883 10.4820659 10.9287792 8.91119925 6.125 6.5 C5.09246094 5.99919922 5.09246094 5.99919922 4.0390625 5.48828125 C2.35426554 4.66928273 0.67639381 3.83606409 -1 3 C-0.67 2.01 -0.34 1.02 0 0 Z " fill="#80BFAE" transform="translate(178,348)"/>
<path d="M0 0 C0 0.99 0 1.98 0 3 C0.103125 3.825 0.20625 4.65 0.3125 5.5 C0.1578125 6.7375 0.1578125 6.7375 0 8 C-2.375 9.5625 -2.375 9.5625 -5 11 C-5.33 11.66 -5.66 12.32 -6 13 C-7.40163997 15.80327994 -9.21850735 16.67879099 -12 18 C-12.66 17.67 -13.32 17.34 -14 17 C-13.40832031 16.35933594 -12.81664062 15.71867187 -12.20703125 15.05859375 C-7.79006952 10.22371395 -3.66053443 5.43176077 0 0 Z " fill="#8CC8BB" transform="translate(336,284)"/>
<path d="M0 0 C1.32 0 2.64 0 4 0 C4 0.66 4 1.32 4 2 C4.66 2 5.32 2 6 2 C6 2.66 6 3.32 6 4 C6.66 4 7.32 4 8 4 C8 4.66 8 5.32 8 6 C8.66 6 9.32 6 10 6 C10 6.66 10 7.32 10 8 C10.66 8 11.32 8 12 8 C11.67 8.66 11.34 9.32 11 10 C10.01 9.67 9.02 9.34 8 9 C8 8.34 8 7.68 8 7 C7.01 6.67 6.02 6.34 5 6 C5 5.01 5 4.02 5 3 C3.35 3 1.7 3 0 3 C0.33 3.66 0.66 4.32 1 5 C1.039992 6.99960012 1.04346799 9.00047242 1 11 C0.01 11.33 -0.98 11.66 -2 12 C-1.85904936 10.3745692 -1.71207913 8.74965949 -1.5625 7.125 C-1.48128906 6.22007812 -1.40007812 5.31515625 -1.31640625 4.3828125 C-1 2 -1 2 0 0 Z " fill="#E6B2B2" transform="translate(313,205)"/>
<path d="M0 0 C0.33 0.66 0.66 1.32 1 2 C0.67 2.99 0.34 3.98 0 5 C-0.66 5 -1.32 5 -2 5 C-2 5.66 -2 6.32 -2 7 C-2.99 7.495 -2.99 7.495 -4 8 C-4.72159424 9.64363134 -5.39351421 11.31050386 -6 13 C-7.98 13 -9.96 13 -12 13 C-8.19524578 8.43969176 -4.25030379 4.14910608 0 0 Z " fill="#DCB0AD" transform="translate(187,166)"/>
<path d="M0 0 C1.32 0.33 2.64 0.66 4 1 C4 1.66 4 2.32 4 3 C-3.15775723 5.28612778 -9.48193151 6.44032071 -17 6 C-14.06030946 4.04020631 -12.44977414 3.51679931 -9.0625 2.875 C-8.20785156 2.70742188 -7.35320312 2.53984375 -6.47265625 2.3671875 C-4 2 -4 2 0 2 C0 1.34 0 0.68 0 0 Z " fill="#76B3A2" transform="translate(281,358)"/>
<path d="M0 0 C0.33 0 0.66 0 1 0 C1.04898438 1.26714844 1.09796875 2.53429687 1.1484375 3.83984375 C1.22354191 5.53908096 1.29908632 7.23829876 1.375 8.9375 C1.42140625 10.18370117 1.42140625 10.18370117 1.46875 11.45507812 C1.73617703 17.18247369 2.61822587 22.43358471 4 28 C3.34 28 2.68 28 2 28 C-0.95662295 21.49390939 -1.26771631 16.56528888 -0.6875 9.5 C-0.62626953 8.5821875 -0.56503906 7.664375 -0.50195312 6.71875 C-0.35020709 4.47757774 -0.18262465 2.23883111 0 0 Z " fill="#9ACCBE" transform="translate(139,204)"/>
<path d="M0 0 C1.16144531 0.00902344 2.32289063 0.01804688 3.51953125 0.02734375 C4.39996094 0.03894531 5.28039062 0.05054688 6.1875 0.0625 C5.1875 2.0625 5.1875 2.0625 3.546875 2.68359375 C0.48478012 3.17535402 -2.46246953 3.1560003 -5.5625 3.125 C-6.73296875 3.11597656 -7.9034375 3.10695313 -9.109375 3.09765625 C-10.00140625 3.08605469 -10.8934375 3.07445312 -11.8125 3.0625 C-11.8125 2.4025 -11.8125 1.7425 -11.8125 1.0625 C-7.81454108 0.10630267 -4.10446078 -0.0414592 0 0 Z " fill="#6FC9B2" transform="translate(179.8125,253.9375)"/>
<path d="M0 0 C3.84885956 0.55479057 5.59260518 2.24418315 8.25 5 C8.95640625 5.721875 9.6628125 6.44375 10.390625 7.1875 C12 9 12 9 12 10 C8.28400809 10.20086443 7.22791555 10.1519437 4 8 C3.31731862 6.67479497 2.6492959 5.34187818 2 4 C1.34 3.67 0.68 3.34 0 3 C0 2.01 0 1.02 0 0 Z " fill="#DC958F" transform="translate(261,251)"/>
<path d="M0 0 C1.32 0.33 2.64 0.66 4 1 C2.68 1.33 1.36 1.66 0 2 C0 7.94 0 13.88 0 20 C-0.99 19.34 -1.98 18.68 -3 18 C-2.88602456 15.56152549 -2.75929026 13.12486826 -2.625 10.6875 C-2.5940625 9.99720703 -2.563125 9.30691406 -2.53125 8.59570312 C-2.31875081 4.93009211 -2.08066139 3.12099208 0 0 Z " fill="#E9B2AE" transform="translate(256,246)"/>
<path d="M0 0 C0.99 0.66 1.98 1.32 3 2 C2.55037804 3.96035175 2.09001752 5.91824309 1.625 7.875 C1.36976563 8.96554688 1.11453125 10.05609375 0.8515625 11.1796875 C0 14 0 14 -2 16 C-1.67 12.7 -1.34 9.4 -1 6 C-1.33 6.66 -1.66 7.32 -2 8 C-2.99 8 -3.98 8 -5 8 C-4 6 -4 6 -2.5 4.5625 C-0.74916008 2.9622647 -0.74916008 2.9622647 0 0 Z " fill="#73C7B4" transform="translate(142,177)"/>
<path d="M0 0 C0 0.66 0 1.32 0 2 C-1.38782485 2.8466034 -2.78569397 3.67675339 -4.1875 4.5 C-4.96480469 4.9640625 -5.74210937 5.428125 -6.54296875 5.90625 C-9.24103386 7.10729647 -11.0806982 7.20741043 -14 7 C-14 7.66 -14 8.32 -14 9 C-14.66 8.67 -15.32 8.34 -16 8 C-15.67 7.34 -15.34 6.68 -15 6 C-14.01 5.690625 -13.02 5.38125 -12 5.0625 C-10.515 4.5365625 -10.515 4.5365625 -9 4 C-8.67 3.01 -8.34 2.02 -8 1 C-2.25 0 -2.25 0 0 0 Z " fill="#74BFA7" transform="translate(319,343)"/>
<path d="M0 0 C0.99 0.33 1.98 0.66 3 1 C-0.96 4.96 -4.92 8.92 -9 13 C-9.99 12.67 -10.98 12.34 -12 12 C-8.04 8.04 -4.08 4.08 0 0 Z " fill="#7CB4A4" transform="translate(265,222)"/>
<path d="M0 0 C0.99 0.33 1.98 0.66 3 1 C3 5 3 5 1.390625 6.8515625 C0.33101562 7.72941406 0.33101562 7.72941406 -0.75 8.625 C-1.44609375 9.21539062 -2.1421875 9.80578125 -2.859375 10.4140625 C-4.84526351 11.88535946 -6.75581655 12.97899762 -9 14 C-7.24238869 9.96104472 -4.66407963 7.61871787 -1.4609375 4.68359375 C0.32769871 2.99387231 0.32769871 2.99387231 0 0 Z " fill="#5FA89C" transform="translate(175,128)"/>
<path d="M0 0 C-3.0469629 1.69433918 -5.82821466 2.49467112 -9.25 3.125 C-10.58804687 3.37636719 -10.58804687 3.37636719 -11.953125 3.6328125 C-12.96632813 3.81457031 -12.96632813 3.81457031 -14 4 C-13.67 4.66 -13.34 5.32 -13 6 C-16.3 6.33 -19.6 6.66 -23 7 C-19.85241578 3.28431522 -17.35401696 2.24210146 -12.625 1.25 C-10.97371094 0.88648438 -10.97371094 0.88648438 -9.2890625 0.515625 C-6.12855177 0.02015301 -3.19245072 -0.09644866 0 0 Z " fill="#83DAC2" transform="translate(281,359)"/>
<path d="M0 0 C0.66 0.99 1.32 1.98 2 3 C-0.03119476 5.09910705 -2.10828078 6.98622598 -4.4375 8.75 C-5.01371094 9.19859375 -5.58992188 9.6471875 -6.18359375 10.109375 C-8 11 -8 11 -10.22265625 10.640625 C-10.80917969 10.42921875 -11.39570313 10.2178125 -12 10 C-10.37982158 8.66081194 -8.75370657 7.3288031 -7.125 6 C-6.22007812 5.2575 -5.31515625 4.515 -4.3828125 3.75 C-2 2 -2 2 0 2 C0 1.34 0 0.68 0 0 Z " fill="#89C3B6" transform="translate(317,306)"/>
<path d="M0 0 C0.33 0.66 0.66 1.32 1 2 C0.34 2 -0.32 2 -1 2 C-1.185625 3.9490625 -1.185625 3.9490625 -1.375 5.9375 C-1.5859375 8.15234375 -1.5859375 8.15234375 -2 10 C-2.99 10.495 -2.99 10.495 -4 11 C-4.12375 10.360625 -4.2475 9.72125 -4.375 9.0625 C-4.58125 8.381875 -4.7875 7.70125 -5 7 C-5.66 6.67 -6.32 6.34 -7 6 C-4.53846154 1.2 -4.53846154 1.2 -1.8125 0.1875 C-0.9153125 0.0946875 -0.9153125 0.0946875 0 0 Z " fill="#69CDB7" transform="translate(375,272)"/>
<path d="M0 0 C0.33 0.66 0.66 1.32 1 2 C-3.03523352 6.81123996 -7.04467233 11.13242719 -12 15 C-11.58685438 10.55073948 -8.49538473 8.15899896 -5.4375 5.25 C-4.91736328 4.74339844 -4.39722656 4.23679688 -3.86132812 3.71484375 C-2.58089916 2.46965595 -1.29132446 1.23388498 0 0 Z " fill="#84B7A4" transform="translate(280,207)"/>
<path d="M0 0 C0 2.62113708 -0.31292445 4.50935112 -1 7 C-1.66 7 -2.32 7 -3 7 C-3.0825 7.78375 -3.165 8.5675 -3.25 9.375 C-4 12 -4 12 -5.9375 13.375 C-8 14 -8 14 -10 13 C-9.34 12.34 -8.68 11.68 -8 11 C-7.01 11 -6.02 11 -5 11 C-5.33 10.01 -5.66 9.02 -6 8 C-4.41866551 4.83733102 -2.61885488 2.36944013 0 0 Z " fill="#65CAB4" transform="translate(258,186)"/>
<path d="M0 0 C1.06528748 2.73019786 1.07998186 3.79298812 0.00390625 6.578125 C-0.47175781 7.45984375 -0.94742188 8.3415625 -1.4375 9.25 C-1.91058594 10.14203125 -2.38367188 11.0340625 -2.87109375 11.953125 C-3.24363281 12.62859375 -3.61617187 13.3040625 -4 14 C-4.99 13.67 -5.98 13.34 -7 13 C-5.58832253 7.73829306 -3.25149768 4.27828642 0 0 Z " fill="#DF9F9B" transform="translate(166,187)"/>
<path d="M0 0 C0 0.66 0 1.32 0 2 C-0.97582031 2.20496094 -1.95164063 2.40992187 -2.95703125 2.62109375 C-4.22933594 2.89050781 -5.50164062 3.15992187 -6.8125 3.4375 C-8.07707031 3.70433594 -9.34164062 3.97117187 -10.64453125 4.24609375 C-13.97045413 4.93427886 -13.97045413 4.93427886 -17 6 C-17.66 5.34 -18.32 4.68 -19 4 C-12.80189843 0.90094922 -6.91485051 0 0 0 Z " fill="#6CC9B4" transform="translate(207,84)"/>
<path d="M0 0 C3.96 1.98 7.92 3.96 12 6 C12 6.33 12 6.66 12 7 C7.0946016 7.28855285 3.8445565 7.26204794 0 4 C0 2.68 0 1.36 0 0 Z " fill="#8ACEBD" transform="translate(182,319)"/>
<path d="M0 0 C1.32 0.33 2.64 0.66 4 1 C1.36 4.63 -1.28 8.26 -4 12 C-5 9 -5 9 -4.2578125 6.9921875 C-3.88398438 6.29351562 -3.51015625 5.59484375 -3.125 4.875 C-2.75632812 4.17117188 -2.38765625 3.46734375 -2.0078125 2.7421875 C-1 1 -1 1 0 0 Z " fill="#8FCEBB" transform="translate(359,300)"/>
<path d="M0 0 C1.32 0.33 2.64 0.66 4 1 C3.71682074 2.60568666 3.42312209 4.20952047 3.125 5.8125 C2.96257812 6.70582031 2.80015625 7.59914062 2.6328125 8.51953125 C2 11 2 11 0 14 C-0.66 14 -1.32 14 -2 14 C-1.05882353 5.93277311 -1.05882353 5.93277311 0 2 C0 1.34 0 0.68 0 0 Z " fill="#E88681" transform="translate(313,208)"/>
<path d="M0 0 C10.55808656 3.07517084 10.55808656 3.07517084 15 5 C15 5.33 15 5.66 15 6 C9.42447662 6.28838914 5.82637422 6.178344 1 3 C0.67 2.01 0.34 1.02 0 0 Z " fill="#478980" transform="translate(145,276)"/>
<path d="M0 0 C0.99 0.66 1.98 1.32 3 2 C3 3.32 3 4.64 3 6 C2.34 6 1.68 6 1 6 C0.67 9.63 0.34 13.26 0 17 C-0.66 17 -1.32 17 -2 17 C-2.25706972 11.08739655 -1.2982126 5.76081841 0 0 Z " fill="#DEA8A2" transform="translate(158,200)"/>
<path d="M0 0 C3.3 0 6.6 0 10 0 C10 0.99 10 1.98 10 3 C10.99 2.67 11.98 2.34 13 2 C13.66 3.32 14.32 4.64 15 6 C11.48294042 5.34728444 8.10674923 4.48606976 4.6875 3.4375 C3.80449219 3.16808594 2.92148437 2.89867187 2.01171875 2.62109375 C1.34785156 2.41613281 0.68398438 2.21117187 0 2 C0 1.34 0 0.68 0 0 Z " fill="#7AC0AD" transform="translate(324,185)"/>
<path d="M0 0 C4.48222888 2.18054378 6.24897776 4.33060736 8 9 C7.67 9.99 7.34 10.98 7 12 C6.34 12 5.68 12 5 12 C5 11.34 5 10.68 5 10 C4.34 10 3.68 10 3 10 C2.690625 8.906875 2.38125 7.81375 2.0625 6.6875 C1.41662103 4.44592006 0.7376883 2.2130649 0 0 Z " fill="#E88F89" transform="translate(161,225)"/>
<path d="M0 0 C3.99557089 2.10877353 6.59925412 4.14165841 9 8 C9.60265997 10.70192553 9.81169528 13.22250535 10 16 C7.52673395 13.52673395 6.45671278 10.92407097 5 7.77734375 C4.12126497 5.82720626 4.12126497 5.82720626 2 5 C2 4.01 2 3.02 2 2 C1.34 2 0.68 2 0 2 C0 1.34 0 0.68 0 0 Z " fill="#CD8B87" transform="translate(323,214)"/>
<path d="M0 0 C0.33 0.66 0.66 1.32 1 2 C-0.8125 5 -0.8125 5 -3 8 C-3.99 8 -4.98 8 -6 8 C-6.33 8.99 -6.66 9.98 -7 11 C-8.125 7.25 -8.125 7.25 -7 5 C-6.34 5 -5.68 5 -5 5 C-5 4.34 -5 3.68 -5 3 C-2.5 1.375 -2.5 1.375 0 0 Z " fill="#76C4B2" transform="translate(240,206)"/>
<path d="M0 0 C0.66 0 1.32 0 2 0 C0.45158425 3.34708051 -1.49105864 6.24667512 -3.625 9.25 C-4.25664062 10.14203125 -4.88828125 11.0340625 -5.5390625 11.953125 C-6.02117187 12.62859375 -6.50328125 13.3040625 -7 14 C-7.73828125 12.328125 -7.73828125 12.328125 -8 10 C-6.41796875 7.421875 -6.41796875 7.421875 -4.1875 4.75 C-3.09501953 3.41195312 -3.09501953 3.41195312 -1.98046875 2.046875 C-1.32691406 1.37140625 -0.67335937 0.6959375 0 0 Z " fill="#77B4A8" transform="translate(163,144)"/>
<path d="M0 0 C2.31 0.33 4.62 0.66 7 1 C5.68 2.32 4.36 3.64 3 5 C2.34 4.67 1.68 4.34 1 4 C-0.79540511 4.76501555 -0.79540511 4.76501555 -2.625 5.9375 C-3.73875 6.618125 -4.8525 7.29875 -6 8 C-5.34 6.68 -4.68 5.36 -4 4 C-3.34 4 -2.68 4 -2 4 C-2 3.34 -2 2.68 -2 2 C-1.34 2 -0.68 2 0 2 C0 1.34 0 0.68 0 0 Z " fill="#72CBB6" transform="translate(300,185)"/>
<path d="M0 0 C6.27 0 12.54 0 19 0 C19 0.66 19 1.32 19 2 C20.98 2 22.96 2 25 2 C25 2.33 25 2.66 25 3 C21.7 3 18.4 3 15 3 C15 2.67 15 2.34 15 2 C10.05 1.67 5.1 1.34 0 1 C0 0.67 0 0.34 0 0 Z " fill="#F3A09C" transform="translate(274,304)"/>
<path d="M0 0 C2.0625 0.9375 2.0625 0.9375 4 3 C4.05989746 6.07110598 3.58052245 8.99011728 3 12 C2.34 12 1.68 12 1 12 C-1.27678571 3.96428571 -1.27678571 3.96428571 0 0 Z " fill="#71CCB6" transform="translate(378,203)"/>
<path d="M0 0 C3.16451962 0.63432938 5.51687779 1.73182928 8.25 3.4375 C8.95640625 3.86933594 9.6628125 4.30117187 10.390625 4.74609375 C10.92171875 5.15988281 11.4528125 5.57367188 12 6 C12 6.66 12 7.32 12 8 C9.61435923 7.42415568 7.33317216 6.77772405 5 6 C5 5.34 5 4.68 5 4 C4.360625 3.71125 3.72125 3.4225 3.0625 3.125 C1 2 1 2 0 0 Z " fill="#76C6B3" transform="translate(151,246)"/>
<path d="M0 0 C0.66 1.32 1.32 2.64 2 4 C-0.64 3.34 -3.28 2.68 -6 2 C-6 2.66 -6 3.32 -6 4 C-7.65 3.67 -9.3 3.34 -11 3 C-11 2.34 -11 1.68 -11 1 C-7.27569643 0.30710631 -3.78916254 -0.11144596 0 0 Z " fill="#59C7AD" transform="translate(291,106)"/>
<path d="M0 0 C0 0.66 0 1.32 0 2 C-0.66 2 -1.32 2 -2 2 C-2 2.66 -2 3.32 -2 4 C-4.57213134 5.61949011 -5.67669159 6.04408751 -8.75 5.625 C-9.4925 5.41875 -10.235 5.2125 -11 5 C-7.72709962 2.33319229 -4.35126896 0 0 0 Z " fill="#7EC7B0" transform="translate(282,329)"/>
<path d="M0 0 C0 0.99 0 1.98 0 3 C-0.99 3.495 -0.99 3.495 -2 4 C-2 3.34 -2 2.68 -2 2 C-4.31 3.65 -6.62 5.3 -9 7 C-7.125 2.25 -7.125 2.25 -6 0 C-3 -1 -3 -1 0 0 Z " fill="#7BD6C0" transform="translate(335,330)"/>
<path d="M0 0 C0 0.99 0 1.98 0 3 C-3.45214853 5.30143236 -4.23479324 5.13833854 -8.1875 4.625 C-9.53908203 4.45871094 -9.53908203 4.45871094 -10.91796875 4.2890625 C-11.94857422 4.14597656 -11.94857422 4.14597656 -13 4 C-13 3.67 -13 3.34 -13 3 C-12.37351563 2.86722656 -11.74703125 2.73445312 -11.1015625 2.59765625 C-10.28429687 2.42105469 -9.46703125 2.24445313 -8.625 2.0625 C-7.81289062 1.88847656 -7.00078125 1.71445313 -6.1640625 1.53515625 C-3.88723554 0.9721142 -2.3530537 0 0 0 Z " fill="#8CD3C0" transform="translate(194,250)"/>
<path d="M0 0 C0.33 0 0.66 0 1 0 C1.29162929 4.95769796 1.12940055 8.02806853 -2 12 C-2.66 12 -3.32 12 -4 12 C-2.87204037 7.89100419 -1.66489182 3.92438786 0 0 Z " fill="#86CAB3" transform="translate(120,156)"/>
<path d="M0 0 C-4.455 3.465 -4.455 3.465 -9 7 C-9.33 6.01 -9.66 5.02 -10 4 C-6.87839899 0.56623888 -4.64008112 -1.54669371 0 0 Z " fill="#83BBAD" transform="translate(220,270)"/>
<path d="M0 0 C0.66 1.32 1.32 2.64 2 4 C-1.75 9.875 -1.75 9.875 -4 11 C-4.20086443 7.28400809 -4.1519437 6.22791555 -2 3 C-1.34 3 -0.68 3 0 3 C0 2.01 0 1.02 0 0 Z " fill="#E3908C" transform="translate(327,252)"/>
<path d="M0 0 C0.33 0 0.66 0 1 0 C1 2.64 1 5.28 1 8 C-5.4 8.49230769 -5.4 8.49230769 -8.4375 6 C-8.953125 5.34 -9.46875 4.68 -10 4 C-9.278125 4.144375 -8.55625 4.28875 -7.8125 4.4375 C-6.4203125 4.7159375 -6.4203125 4.7159375 -5 5 C-3.33333333 5.33333333 -1.66666667 5.66666667 0 6 C0 4.02 0 2.04 0 0 Z " fill="#DC918A" transform="translate(178,233)"/>
<path d="M0 0 C0.33 0 0.66 0 1 0 C1.1799928 5.21979128 0.97094808 9.07262981 -1 14 C-1.66 14 -2.32 14 -3 14 C-2.48594831 9.03083364 -1.76615118 4.70973649 0 0 Z " fill="#8AC8B9" transform="translate(115,168)"/>
<path d="M0 0 C1.32 0.99 2.64 1.98 4 3 C3.1875 5.9375 3.1875 5.9375 2 9 C1.01 9.33 0.02 9.66 -1 10 C-0.67 6.7 -0.34 3.4 0 0 Z " fill="#85D2BF" transform="translate(369,279)"/>
<path d="M0 0 C0.99 0 1.98 0 3 0 C2.71125 0.70125 2.4225 1.4025 2.125 2.125 C0.97866412 5.05452503 -0.02625654 8.00921653 -1 11 C-1.99 11 -2.98 11 -4 11 C-2.7874262 7.27566618 -1.49140021 3.62197194 0 0 Z " fill="#7CBFAC" transform="translate(347,263)"/>
<path d="M0 0 C0.6875 1.75 0.6875 1.75 1 4 C-0.125 6.25 -0.125 6.25 -2 8 C-4.6875 8.25 -4.6875 8.25 -7 8 C-6.02133662 6.85373678 -5.04205413 5.70800212 -4.0625 4.5625 C-3.51722656 3.92441406 -2.97195312 3.28632813 -2.41015625 2.62890625 C-1.63204305 1.73008851 -0.84063472 0.84063472 0 0 Z " fill="#E6A59D" transform="translate(174,179)"/>
<path d="M0 0 C0.99 0 1.98 0 3 0 C3.33 1.32 3.66 2.64 4 4 C4.99 4 5.98 4 7 4 C6.67 5.65 6.34 7.3 6 9 C4.29115995 7.37660195 2.62553283 5.70680947 1 4 C1 3.34 1 2.68 1 2 C0.67 1.34 0.34 0.68 0 0 Z " fill="#EA9693" transform="translate(225,185)"/>
<path d="M0 0 C0.99 0 1.98 0 3 0 C2.67 0.99 2.34 1.98 2 3 C1.34 3 0.68 3 0 3 C-0.66 4.32 -1.32 5.64 -2 7 C-3.32 6.67 -4.64 6.34 -6 6 C-4.71034824 4.62437146 -3.37310707 3.29233607 -2 2 C-1.34 2 -0.68 2 0 2 C0 1.34 0 0.68 0 0 Z " fill="#99CCBF" transform="translate(222,222)"/>
<path d="M0 0 C1.58467728 0.28427417 3.1677057 0.57774818 4.75 0.875 C6.07257813 1.11863281 6.07257813 1.11863281 7.421875 1.3671875 C9.86947744 1.96796264 11.80599857 2.77997117 14 4 C12.35 4.66 10.7 5.32 9 6 C8.7215625 5.0409375 8.7215625 5.0409375 8.4375 4.0625 C7.05753944 1.57873787 7.05753944 1.57873787 3.375 1.25 C2.26125 1.1675 1.1475 1.085 0 1 C0 0.67 0 0.34 0 0 Z " fill="#99CFC1" transform="translate(282,79)"/>
<path d="M0 0 C0 3 0 3 -1.53125 4.82421875 C-2.1809375 5.43910156 -2.830625 6.05398438 -3.5 6.6875 C-4.1496875 7.31011719 -4.799375 7.93273437 -5.46875 8.57421875 C-5.9740625 9.04472656 -6.479375 9.51523437 -7 10 C-7.99 9.67 -8.98 9.34 -10 9 C-6.7 6.03 -3.4 3.06 0 0 Z " fill="#7ABCAA" transform="translate(344,321)"/>
<path d="M0 0 C0.66 0.33 1.32 0.66 2 1 C0.73058503 4.91402949 -0.51167694 6.79072873 -4 9 C-3.38461538 3.46153846 -3.38461538 3.46153846 -1.4375 1.125 C-0.963125 0.75375 -0.48875 0.3825 0 0 Z " fill="#E1918B" transform="translate(303,278)"/>
<path d="M0 0 C2.375 -0.1875 2.375 -0.1875 5 0 C5.66 0.99 6.32 1.98 7 3 C5.576875 3.12375 5.576875 3.12375 4.125 3.25 C0.89538209 3.65074923 0.89538209 3.65074923 -0.375 6.0625 C-0.58125 6.701875 -0.7875 7.34125 -1 8 C-0.67 5.36 -0.34 2.72 0 0 Z " fill="#D58985" transform="translate(256,248)"/>
<path d="M0 0 C0.33 0.99 0.66 1.98 1 3 C-1.31 5.31 -3.62 7.62 -6 10 C-6.33 9.01 -6.66 8.02 -7 7 C-4.69 4.69 -2.38 2.38 0 0 Z " fill="#7AB6AA" transform="translate(247,240)"/>
<path d="M0 0 C-2.55068845 2.35448165 -3.71017358 2.98327924 -7.25 3.1875 C-8.1575 3.125625 -9.065 3.06375 -10 3 C-9.67 2.01 -9.34 1.02 -9 0 C-5.62182575 -0.84454356 -3.32534757 -1.10844919 0 0 Z " fill="#89CFBD" transform="translate(325,341)"/>
<path d="M0 0 C0.66 0 1.32 0 2 0 C1.33501617 4.38889325 -0.18757677 7.9811485 -2 12 C-2.33 12 -2.66 12 -3 12 C-3.43200679 7.24792529 -1.98489083 4.21789302 0 0 Z " fill="#D79D98" transform="translate(332,244)"/>
<path d="M0 0 C3.96 0.33 7.92 0.66 12 1 C8.64672361 3.23551759 8.09256343 3.17283528 4.3125 2.625 C3.50425781 2.51414062 2.69601562 2.40328125 1.86328125 2.2890625 C1.24839844 2.19367188 0.63351562 2.09828125 0 2 C0 1.34 0 0.68 0 0 Z " fill="#8ECFBE" transform="translate(269,77)"/>
<path d="M0 0 C-0.33 1.32 -0.66 2.64 -1 4 C-2.65 4.33 -4.3 4.66 -6 5 C-6.66 4.01 -7.32 3.02 -8 2 C-5.09399739 0.74335022 -3.20395416 0 0 0 Z " fill="#8ACDBF" transform="translate(290,326)"/>
<path d="M0 0 C0.66 0 1.32 0 2 0 C0.4169423 4.2742558 -2.50568404 6.26531794 -6 9 C-5.6875 7.0625 -5.6875 7.0625 -5 5 C-4.01 4.67 -3.02 4.34 -2 4 C-0.79117904 1.99983534 -0.79117904 1.99983534 0 0 Z " fill="#D08A89" transform="translate(310,273)"/>
<path d="M0 0 C0.99 0 1.98 0 3 0 C2.60196439 2.88575819 2.20990931 3.82189513 -0.0625 5.75 C-0.701875 6.1625 -1.34125 6.575 -2 7 C-2.66 6.67 -3.32 6.34 -4 6 C-2.1875 3 -2.1875 3 0 0 Z " fill="#69C7B1" transform="translate(216,229)"/>
<path d="M0 0 C-1.28965176 1.37562854 -2.62689293 2.70766393 -4 4 C-4.66 4 -5.32 4 -6 4 C-6.33 4.66 -6.66 5.32 -7 6 C-7 4.35 -7 2.7 -7 1 C-3.375 -1.125 -3.375 -1.125 0 0 Z " fill="#98CDBF" transform="translate(288,203)"/>
<path d="M0 0 C0.99 0.33 1.98 0.66 3 1 C0.03 4.96 0.03 4.96 -3 9 C-3.66 8.67 -4.32 8.34 -5 8 C-4.67 7.01 -4.34 6.02 -4 5 C-3.34 4.67 -2.68 4.34 -2 4 C-0.86649466 1.98330173 -0.86649466 1.98330173 0 0 Z " fill="#62CEB6" transform="translate(271,175)"/>
<path d="M0 0 C1.32 0 2.64 0 4 0 C3.75 1.875 3.75 1.875 3 4 C0.9375 5.25 0.9375 5.25 -1 6 C-1.33 5.01 -1.66 4.02 -2 3 C-1.34 2.01 -0.68 1.02 0 0 Z " fill="#E5867A" transform="translate(175,179)"/>
<path d="M0 0 C1.98 0.495 1.98 0.495 4 1 C2.515 4.465 2.515 4.465 1 8 C0.34 8 -0.32 8 -1 8 C-0.67 5.36 -0.34 2.72 0 0 Z " fill="#7BC3B4" transform="translate(149,161)"/>
<path d="M0 0 C0.66 0.66 1.32 1.32 2 2 C0.35 2.33 -1.3 2.66 -3 3 C-3 3.99 -3 4.98 -3 6 C-4.32 5.34 -5.64 4.68 -7 4 C-4.86535088 1.54515351 -3.29279709 0.31865778 0 0 Z " fill="#83CEBD" transform="translate(154,113)"/>
<path d="M0 0 C0.66 0.33 1.32 0.66 2 1 C2.33 1.99 2.66 2.98 3 4 C-0.375 4.625 -0.375 4.625 -4 5 C-4.66 4.34 -5.32 3.68 -6 3 C-4.03533587 1.93224776 -2.03144641 0.93446535 0 0 Z " fill="#84CDB9" transform="translate(186,89)"/>
<path d="M0 0 C3.375 -0.125 3.375 -0.125 7 0 C7.66 0.66 8.32 1.32 9 2 C7.02 2.99 7.02 2.99 5 4 C3.35 2.68 1.7 1.36 0 0 Z " fill="#81CDB8" transform="translate(170,346)"/>
<path d="M0 0 C2.64 0.33 5.28 0.66 8 1 C8.33 2.32 8.66 3.64 9 5 C5.22454612 3.90931332 2.52956528 3.0916909 0 0 Z " fill="#5FA29C" transform="translate(137,273)"/>
<path d="M0 0 C1.32 0 2.64 0 4 0 C3.67 1.32 3.34 2.64 3 4 C1.02 4 -0.96 4 -3 4 C-1.75 2 -1.75 2 0 0 Z " fill="#DF9F98" transform="translate(178,175)"/>
<path d="M0 0 C1.32 1.32 2.64 2.64 4 4 C3.34 4.66 2.68 5.32 2 6 C-0.625 5.625 -0.625 5.625 -3 5 C-3 4.34 -3 3.68 -3 3 C-2.01 2.67 -1.02 2.34 0 2 C0 1.34 0 0.68 0 0 Z " fill="#82DBC6" transform="translate(357,168)"/>
<path d="M0 0 C1.98 0 3.96 0 6 0 C4.37660195 1.70884005 2.70680947 3.37446717 1 5 C0.34 5 -0.32 5 -1 5 C-0.67 3.35 -0.34 1.7 0 0 Z " fill="#E9847C" transform="translate(188,166)"/>
<path d="M0 0 C2.46800047 1.15173355 4.04783565 2.04783565 6 4 C5.625 6.625 5.625 6.625 5 9 C4.34 8.67 3.68 8.34 3 8 C3.33 6.68 3.66 5.36 4 4 C2.68 3.34 1.36 2.68 0 2 C0 1.34 0 0.68 0 0 Z " fill="#DC887F" transform="translate(192,153)"/>
<path d="M0 0 C4.31392226 0.4793247 6.16569547 1.7457985 9 5 C7.68 5.33 6.36 5.66 5 6 C3.35 4.02 1.7 2.04 0 0 Z " fill="#88C1B4" transform="translate(338,107)"/>
<path d="M0 0 C-1.4375 1.5625 -1.4375 1.5625 -4 3 C-7.05380927 2.96846324 -9.99653222 2.53266629 -13 2 C-13 1.67 -13 1.34 -13 1 C-8.62426048 0.40667939 -4.42471556 -0.13827236 0 0 Z " fill="#93D0BE" transform="translate(232,77)"/>
<path d="M0 0 C1.32 0.33 2.64 0.66 4 1 C4 1.66 4 2.32 4 3 C1.69 3.33 -0.62 3.66 -3 4 C-3.33 3.34 -3.66 2.68 -4 2 C-2.68 2 -1.36 2 0 2 C0 1.34 0 0.68 0 0 Z " fill="#7CBAA6" transform="translate(281,358)"/>
<path d="M0 0 C2.91517292 1.07401108 4.77810176 1.77810176 7 4 C1.25 4.125 1.25 4.125 -1 3 C-0.67 2.01 -0.34 1.02 0 0 Z " fill="#6EC8B3" transform="translate(168,342)"/>
<path d="M0 0 C7.75 -0.125 7.75 -0.125 10 1 C10 1.66 10 2.32 10 3 C6.14354879 3.22036864 3.50776784 2.60355101 0 1 C0 0.67 0 0.34 0 0 Z " fill="#74C7B1" transform="translate(210,333)"/>
<path d="M0 0 C0.33 0 0.66 0 1 0 C1 1.65 1 3.3 1 5 C2.32 5.66 3.64 6.32 5 7 C4.34 7.66 3.68 8.32 3 9 C1.68 8.01 0.36 7.02 -1 6 C-0.67 4.02 -0.34 2.04 0 0 Z " fill="#82CDBA" transform="translate(147,324)"/>
<path d="M0 0 C0.66 0.33 1.32 0.66 2 1 C1.67 1.66 1.34 2.32 1 3 C0.34 3 -0.32 3 -1 3 C-0.67 3.99 -0.34 4.98 0 6 C-0.99 6.66 -1.98 7.32 -3 8 C-3.1875 5.125 -3.1875 5.125 -3 2 C-2.01 1.34 -1.02 0.68 0 0 Z " fill="#78D1B8" transform="translate(348,314)"/>
<path d="M0 0 C0.33 0.66 0.66 1.32 1 2 C-0.98 4.97 -0.98 4.97 -3 8 C-4.32 7.67 -5.64 7.34 -7 7 C-5.68 6.34 -4.36 5.68 -3 5 C-3 4.34 -3 3.68 -3 3 C-2.34 3 -1.68 3 -1 3 C-0.67 2.01 -0.34 1.02 0 0 Z " fill="#DEA9A4" transform="translate(294,239)"/>
<path d="M0 0 C2.66735273 2.48952921 4.55746343 4.63408134 6 8 C4.125 7.6875 4.125 7.6875 2 7 C0 4 0 4 0 0 Z " fill="#90CCBE" transform="translate(144,235)"/>
<path d="M0 0 C-1.28519565 2.86697492 -2.57129254 4.97607712 -5 7 C-5.66 7 -6.32 7 -7 7 C-3.86206897 0 -3.86206897 0 0 0 Z " fill="#DA9E9C" transform="translate(202,202)"/>
<path d="M0 0 C0.66 0.99 1.32 1.98 2 3 C0.6875 4.5 0.6875 4.5 -1 6 C-1.99 6 -2.98 6 -4 6 C-2.25 1.125 -2.25 1.125 0 0 Z " fill="#65C5AE" transform="translate(261,185)"/>
<path d="M0 0 C-0.33 0.99 -0.66 1.98 -1 3 C-2.32 3 -3.64 3 -5 3 C-5.99 3.495 -5.99 3.495 -7 4 C-7 2.68 -7 1.36 -7 0 C-3.86650268 -1.04449911 -3.01031744 -0.93423645 0 0 Z " fill="#DB9691" transform="translate(224,184)"/>
<path d="M0 0 C0.66 1.32 1.32 2.64 2 4 C0.03533587 5.06775224 -1.96855359 6.06553465 -4 7 C-4.66 6.67 -5.32 6.34 -6 6 C-4.02 4.02 -2.04 2.04 0 0 Z " fill="#9BCEC4" transform="translate(274,170)"/>
<path d="M0 0 C0.66 1.32 1.32 2.64 2 4 C1.01 4.495 1.01 4.495 0 5 C-0.33 5.99 -0.66 6.98 -1 8 C-1.33 8 -1.66 8 -2 8 C-2 5.69 -2 3.38 -2 1 C-1.34 0.67 -0.68 0.34 0 0 Z " fill="#62CCB2" transform="translate(118,167)"/>
<path d="M0 0 C0.99 0 1.98 0 3 0 C3 0.66 3 1.32 3 2 C3.66 2.33 4.32 2.66 5 3 C2 5 2 5 -1 5 C-0.67 3.35 -0.34 1.7 0 0 Z " fill="#76CCBC" transform="translate(163,140)"/>
<path d="M0 0 C0.33 0.99 0.66 1.98 1 3 C-0.40445835 5.2636564 -2.1967913 7.0208685 -4 9 C-4.66 8.67 -5.32 8.34 -6 8 C-4.02 5.36 -2.04 2.72 0 0 Z " fill="#96CCC0" transform="translate(138,128)"/>
<path d="M0 0 C2.64 0.99 5.28 1.98 8 3 C8 3.66 8 4.32 8 5 C4.7 4.01 1.4 3.02 -2 2 C-1.34 1.34 -0.68 0.68 0 0 Z " fill="#8BC4B8" transform="translate(285,109)"/>
<path d="M0 0 C-0.6875 1.9375 -0.6875 1.9375 -2 4 C-4.625 4.75 -4.625 4.75 -7 5 C-7 4.34 -7 3.68 -7 3 C-2.61538462 0 -2.61538462 0 0 0 Z " fill="#67CBB5" transform="translate(329,299)"/>
<path d="M0 0 C0.99 0 1.98 0 3 0 C3 0.99 3 1.98 3 3 C3.99 3.33 4.98 3.66 6 4 C5.01 4.66 4.02 5.32 3 6 C1.5 4.6875 1.5 4.6875 0 3 C0 2.01 0 1.02 0 0 Z " fill="#47908B" transform="translate(127,262)"/>
<path d="M0 0 C1.75 1.4375 1.75 1.4375 3 3 C1.02 3.66 -0.96 4.32 -3 5 C-3.33 3.68 -3.66 2.36 -4 1 C-2.1875 0.3125 -2.1875 0.3125 0 0 Z " fill="#77DDC9" transform="translate(150,243)"/>
<path d="M0 0 C0.66 0.66 1.32 1.32 2 2 C2.66 1.67 3.32 1.34 4 1 C3.67 3.31 3.34 5.62 3 8 C1.5 6.8125 1.5 6.8125 0 5 C-0.1875 2.3125 -0.1875 2.3125 0 0 Z " fill="#E88E8A" transform="translate(330,226)"/>
<path d="M0 0 C1.9375 1.0625 1.9375 1.0625 4 3 C4.75 6.6875 4.75 6.6875 5 10 C1.55783328 7.3401439 1.00495326 4.09711714 0 0 Z " fill="#7EBBAD" transform="translate(373,189)"/>
<path d="M0 0 C2.31 0.33 4.62 0.66 7 1 C7 1.66 7 2.32 7 3 C5.02 3.33 3.04 3.66 1 4 C0.67 2.68 0.34 1.36 0 0 Z " fill="#7AC6B3" transform="translate(339,160)"/>
<path d="M0 0 C1.32 0.33 2.64 0.66 4 1 C1.69 2.65 -0.62 4.3 -3 6 C-2 2 -2 2 0 0 Z " fill="#7BBDB2" transform="translate(181,126)"/>
<path d="M0 0 C5.75 1.75 5.75 1.75 8 4 C7.01 4.33 6.02 4.66 5 5 C5 4.34 5 3.68 5 3 C3.68 3.33 2.36 3.66 1 4 C0.67 2.68 0.34 1.36 0 0 Z " fill="#91CAC0" transform="translate(315,91)"/>
<path d="M0 0 C0.66 0.33 1.32 0.66 2 1 C1 3 1 3 -2.0625 4.125 C-3.5165625 4.558125 -3.5165625 4.558125 -5 5 C-5.66 4.34 -6.32 3.68 -7 3 C-4.69631264 1.93347808 -2.35981813 0.93578995 0 0 Z " fill="#9CD2C4" transform="translate(195,85)"/>
<path d="M0 0 C1.875 0.3125 1.875 0.3125 4 1 C4.66 1.99 5.32 2.98 6 4 C4.35 4 2.7 4 1 4 C0.67 2.68 0.34 1.36 0 0 Z " fill="#D9A29D" transform="translate(267,257)"/>
<path d="M0 0 C2.46278801 2.46278801 2.99771255 4.70676982 4 8 C3.01 8 2.02 8 1 8 C0.67 5.36 0.34 2.72 0 0 Z " fill="#5C958A" transform="translate(116,243)"/>
<path d="M0 0 C0.99 0 1.98 0 3 0 C3 0.66 3 1.32 3 2 C3.66 2 4.32 2 5 2 C5 2.66 5 3.32 5 4 C5.66 4 6.32 4 7 4 C6.67 4.66 6.34 5.32 6 6 C5.01 5.67 4.02 5.34 3 5 C3 4.34 3 3.68 3 3 C2.01 2.67 1.02 2.34 0 2 C0 1.34 0 0.68 0 0 Z " fill="#DAA09C" transform="translate(318,209)"/>
<path d="M0 0 C0.33 0.66 0.66 1.32 1 2 C-0.32 3.65 -1.64 5.3 -3 7 C-3.99 6.67 -4.98 6.34 -6 6 C-4.02 4.02 -2.04 2.04 0 0 Z " fill="#71ACA2" transform="translate(280,207)"/>
<path d="M0 0 C0 2.62113708 -0.31292445 4.50935112 -1 7 C-2.32 6.34 -3.64 5.68 -5 5 C-3.35 3.35 -1.7 1.7 0 0 Z " fill="#95CFC1" transform="translate(258,186)"/>
<path d="M0 0 C1.98 0.495 1.98 0.495 4 1 C2.02 3.97 2.02 3.97 0 7 C-1.04449911 3.86650268 -0.93423645 3.01031744 0 0 Z " fill="#E6867E" transform="translate(167,187)"/>
<path d="M0 0 C0.99 0 1.98 0 3 0 C2.25 1.9375 2.25 1.9375 1 4 C-1.125 4.75 -1.125 4.75 -3 5 C-1.6875 2.5 -1.6875 2.5 0 0 Z " fill="#75BDAC" transform="translate(277,168)"/>
<path d="M0 0 C0 0.66 0 1.32 0 2 C-2.95664519 3.4783226 -5.74229737 3.06032783 -9 3 C-4.5 0 -4.5 0 0 0 Z " fill="#99C6BB" transform="translate(207,82)"/>
</svg>
