<?xml version="1.0" standalone="no"?>
<!DOCTYPE svg PUBLIC "-//W3C//DTD SVG 20010904//EN"
 "http://www.w3.org/TR/2001/REC-SVG-20010904/DTD/svg10.dtd">
<svg version="1.0" xmlns="http://www.w3.org/2000/svg"
 width="441.000000pt" height="441.000000pt" viewBox="0 0 441.000000 441.000000"
 preserveAspectRatio="xMidYMid meet">

<g transform="translate(0.000000,441.000000) scale(0.100000,-0.100000)"
fill="#000000" stroke="none">
<path d="M2040 4404 c-125 -12 -278 -38 -398 -69 -619 -162 -1145 -598 -1423
-1180 -86 -179 -144 -363 -184 -580 -23 -120 -31 -477 -15 -616 47 -411 217
-817 477 -1139 82 -101 279 -291 379 -367 667 -498 1546 -585 2288 -225 665
324 1119 946 1222 1677 19 142 22 435 5 570 -32 249 -104 486 -213 707 -215
436 -558 779 -993 996 -213 106 -422 172 -655 207 -104 15 -402 27 -490 19z
m290 -214 c0 -11 -4 -20 -10 -20 -6 0 -10 -33 -10 -79 l0 -80 -52 6 c-73 7
-288 -13 -411 -38 -466 -96 -885 -382 -1150 -784 -134 -205 -226 -437 -273
-697 -18 -102 -26 -374 -13 -483 84 -730 588 -1330 1294 -1541 209 -63 498
-88 715 -61 64 8 119 10 124 6 6 -5 1 -9 -12 -9 -19 0 -22 -5 -22 -40 0 -35 3
-41 28 -47 23 -7 20 -8 -28 -14 -30 -4 -88 -7 -129 -8 l-73 -1 6 -45 7 -45
-48 -1 c-250 -8 -483 25 -713 101 -124 41 -351 152 -465 229 -461 308 -768
781 -870 1338 -22 120 -31 413 -16 538 76 651 439 1210 991 1527 309 177 629
264 988 267 136 1 142 0 142 -19z m69 -880 c90 -32 194 -105 287 -202 277
-289 472 -821 564 -1543 21 -158 39 -475 27 -475 -3 0 -12 6 -19 12 -43 39
-262 146 -383 187 -257 86 -512 114 -797 86 l-68 -7 6 48 c12 107 35 281 40
312 l6 32 157 0 c167 0 370 -20 516 -50 50 -10 92 -17 93 -15 2 2 -6 54 -18
117 -121 643 -381 1128 -605 1128 -227 0 -488 -497 -609 -1160 -33 -183 -53
-353 -72 -612 l-6 -87 -189 -3 c-104 -2 -193 -2 -197 -1 -10 4 3 251 23 431
80 728 284 1302 571 1602 111 116 227 188 353 220 65 16 249 5 320 -20z"/>
<path d="M2458 323 c7 -3 16 -2 19 1 4 3 -2 6 -13 5 -11 0 -14 -3 -6 -6z"/>
</g>
</svg>
